<svg id="Layer_1" data-name="Layer 1" xmlns="http://www.w3.org/2000/svg" xmlns:xlink="http://www.w3.org/1999/xlink" viewBox="0 0 413.85 220.57"><defs><style>.cls-1,.cls-2{fill:none;}.cls-2{stroke:#231f20;stroke-width:0.3px;}.cls-3{fill:#231f20;}.cls-4{fill:#f58225;}.cls-5{fill:url(#USGS_22_Gravel_Beach);}.cls-6{fill:url(#Mezzotint_Irregular);}</style><pattern id="USGS_22_Gravel_Beach" data-name="USGS 22 Gravel Beach" width="72" height="72" patternUnits="userSpaceOnUse" viewBox="0 0 72 72"><rect class="cls-1" width="72" height="72"/><path class="cls-3" d="M21,3.1a.39.39,0,0,1-.25-.1.36.36,0,0,1,0-.5.36.36,0,0,1,.6.25.39.39,0,0,1-.1.25A.39.39,0,0,1,21,3.1Z"/><path class="cls-3" d="M20,8.35A.34.34,0,0,1,19.65,8a.33.33,0,0,1,.11-.25.37.37,0,0,1,.49,0,.36.36,0,0,1,.1.25.39.39,0,0,1-.1.25A.37.37,0,0,1,20,8.35Z"/><path class="cls-3" d="M20.25,10.6A.35.35,0,0,1,20,10a.37.37,0,0,1,.5,0,.35.35,0,0,1-.25.6Z"/><path class="cls-3" d="M15.25,10.6a.34.34,0,0,1-.35-.35A.37.37,0,0,1,15,10a.38.38,0,0,1,.5,0,.35.35,0,0,1-.25.6Z"/><path class="cls-3" d="M22.75,20.1a.35.35,0,0,1-.25-.6.36.36,0,0,1,.6.25.34.34,0,0,1-.35.35Z"/><path class="cls-3" d="M15.25,23.1a.34.34,0,0,1-.35-.35A.33.33,0,0,1,15,22.5a.37.37,0,0,1,.49,0,.36.36,0,0,1,.1.25.34.34,0,0,1-.35.35Z"/><path class="cls-3" d="M14,24.1a.35.35,0,0,1-.25-.6.36.36,0,0,1,.6.25.39.39,0,0,1-.1.25A.37.37,0,0,1,14,24.1Z"/><path class="cls-3" d="M24,27.1a.34.34,0,0,1-.35-.35.33.33,0,0,1,.11-.25.37.37,0,0,1,.49,0,.39.39,0,0,1,.1.25.35.35,0,0,1-.1.24A.36.36,0,0,1,24,27.1Z"/><path class="cls-3" d="M30.75,25.85a.35.35,0,0,1-.25-.6.36.36,0,0,1,.6.25.34.34,0,0,1-.35.35Z"/><path class="cls-3" d="M31.25,23.35A.34.34,0,0,1,30.9,23a.33.33,0,0,1,.11-.25.35.35,0,0,1,.59.25.39.39,0,0,1-.1.25A.37.37,0,0,1,31.25,23.35Z"/><path class="cls-3" d="M29.25,18.35a.35.35,0,0,1-.25-.6.36.36,0,0,1,.6.25.34.34,0,0,1-.35.35Z"/><path class="cls-3" d="M34,19.85a.35.35,0,0,1-.25-.6.36.36,0,0,1,.6.25.34.34,0,0,1-.35.35Z"/><path class="cls-3" d="M31.5,14.85a.35.35,0,0,1-.25-.6.36.36,0,0,1,.6.25.34.34,0,0,1-.35.35Z"/><path class="cls-3" d="M31.75,11.85a.35.35,0,0,1-.25-.6.37.37,0,0,1,.5,0,.35.35,0,0,1-.25.6Z"/><path class="cls-3" d="M32.25,7.1A.35.35,0,0,1,32,6.5a.36.36,0,0,1,.6.25.34.34,0,0,1-.35.35Z"/><path class="cls-3" d="M32,3.1a.39.39,0,0,1-.25-.1.39.39,0,0,1-.1-.25.33.33,0,0,1,.11-.25.35.35,0,0,1,.59.25.39.39,0,0,1-.1.25A.39.39,0,0,1,32,3.1Z"/><path class="cls-3" d="M34,1.35a.36.36,0,0,1-.25-.11.33.33,0,0,1-.1-.24.33.33,0,0,1,.11-.25.36.36,0,0,1,.49,0,.36.36,0,0,1,.1.25.34.34,0,0,1-.11.25A.35.35,0,0,1,34,1.35Z"/><path class="cls-3" d="M41.5,7.1a.39.39,0,0,1-.25-.1.35.35,0,0,1-.1-.25.39.39,0,0,1,.1-.25.35.35,0,0,1,.49,0,.36.36,0,0,1,.11.25.34.34,0,0,1-.35.35Z"/><path class="cls-3" d="M45.5,6.85a.39.39,0,0,1-.25-.1.36.36,0,0,1,0-.5.36.36,0,0,1,.6.25.34.34,0,0,1-.35.35Z"/><path class="cls-3" d="M42.5,13.6a.34.34,0,0,1-.35-.35.33.33,0,0,1,.11-.25.35.35,0,0,1,.59.25.34.34,0,0,1-.35.35Z"/><path class="cls-3" d="M47,14.35a.34.34,0,0,1-.35-.35.33.33,0,0,1,.11-.25.36.36,0,0,1,.49,0,.39.39,0,0,1,.1.25.33.33,0,0,1-.1.24A.36.36,0,0,1,47,14.35Z"/><path class="cls-3" d="M47,16.35a.34.34,0,0,1-.35-.35.33.33,0,0,1,.11-.25.36.36,0,0,1,.49,0,.39.39,0,0,1,.1.25.37.37,0,0,1-.1.24A.36.36,0,0,1,47,16.35Z"/><path class="cls-3" d="M39,20.85a.35.35,0,0,1-.25-.6.36.36,0,0,1,.49,0,.34.34,0,0,1,.11.25.34.34,0,0,1-.35.35Z"/><path class="cls-3" d="M50.25,13.6a.39.39,0,0,1-.25-.1.36.36,0,0,1,0-.5.37.37,0,0,1,.5,0,.35.35,0,0,1-.25.6Z"/><path class="cls-3" d="M52.25,12.1A.36.36,0,0,1,52,12a.35.35,0,0,1-.1-.24A.33.33,0,0,1,52,11.5a.37.37,0,0,1,.49,0,.36.36,0,0,1,.1.25.34.34,0,0,1-.35.35Z"/><path class="cls-3" d="M54.75,11.1A.36.36,0,0,1,54.5,11a.35.35,0,0,1-.1-.24.33.33,0,0,1,.11-.25.35.35,0,0,1,.59.25.34.34,0,0,1-.35.35Z"/><path class="cls-3" d="M56.5.85a.39.39,0,0,1-.25-.1.39.39,0,0,1-.1-.25.39.39,0,0,1,.1-.25.36.36,0,0,1,.5,0,.35.35,0,0,1,.1.24.39.39,0,0,1-.1.25A.39.39,0,0,1,56.5.85Z"/><path class="cls-3" d="M68,3.1a.39.39,0,0,1-.25-.1.39.39,0,0,1-.1-.25.33.33,0,0,1,.11-.25.37.37,0,0,1,.49,0,.36.36,0,0,1,.1.25.39.39,0,0,1-.1.25A.37.37,0,0,1,68,3.1Z"/><path class="cls-3" d="M68,10.35a.36.36,0,0,1-.25-.11.35.35,0,0,1-.1-.24.39.39,0,0,1,.1-.25.37.37,0,0,1,.5,0,.39.39,0,0,1,.1.25.34.34,0,0,1-.11.25A.35.35,0,0,1,68,10.35Z"/><path class="cls-3" d="M64.25,12.35a.35.35,0,0,1-.25-.6.36.36,0,0,1,.6.25.34.34,0,0,1-.35.35Z"/><path class="cls-3" d="M65.25,15.85a.34.34,0,0,1-.35-.35.37.37,0,0,1,.1-.25.38.38,0,0,1,.5,0,.35.35,0,0,1-.25.6Z"/><path class="cls-3" d="M64,19.85a.36.36,0,0,1-.25-.11.35.35,0,0,1-.1-.24.39.39,0,0,1,.1-.25.37.37,0,0,1,.5,0,.39.39,0,0,1,.1.25.34.34,0,0,1-.11.25A.35.35,0,0,1,64,19.85Z"/><path class="cls-3" d="M66.25,19.85a.34.34,0,0,1-.35-.35.33.33,0,0,1,.11-.25.37.37,0,0,1,.49,0,.36.36,0,0,1,.1.25.34.34,0,0,1-.35.35Z"/><path class="cls-3" d="M68,21.35a.35.35,0,0,1-.25-.6.37.37,0,0,1,.5,0,.35.35,0,0,1-.25.6Z"/><path class="cls-3" d="M7,52.35a.35.35,0,0,1-.25-.6.38.38,0,0,1,.5,0,.35.35,0,0,1-.25.6Z"/><path class="cls-3" d="M7.25,54.6A.35.35,0,0,1,7,54a.37.37,0,0,1,.5,0,.35.35,0,0,1-.25.6Z"/><path class="cls-3" d="M2.25,54.6A.39.39,0,0,1,2,54.5.36.36,0,0,1,2,54a.38.38,0,0,1,.5,0,.36.36,0,0,1,0,.5A.39.39,0,0,1,2.25,54.6Z"/><path class="cls-3" d="M9.75,64.1a.35.35,0,0,1-.25-.6.36.36,0,0,1,.6.25.34.34,0,0,1-.35.35Z"/><path class="cls-3" d="M1,68.1A.39.39,0,0,1,.75,68a.36.36,0,0,1,0-.5.38.38,0,0,1,.5,0,.36.36,0,0,1,0,.5A.39.39,0,0,1,1,68.1Z"/><path class="cls-3" d="M11,71.1a.35.35,0,0,1-.25-.6.38.38,0,0,1,.5,0,.35.35,0,0,1-.25.6Z"/><path class="cls-3" d="M18.25,67.35A.34.34,0,0,1,17.9,67a.37.37,0,0,1,.1-.25.37.37,0,0,1,.49,0,.36.36,0,0,1,.11.25.34.34,0,0,1-.35.35Z"/><path class="cls-3" d="M16.25,62.35a.35.35,0,0,1-.25-.6.37.37,0,0,1,.5,0,.35.35,0,0,1-.25.6Z"/><path class="cls-3" d="M19.5,57.85a.34.34,0,0,1-.35-.35.33.33,0,0,1,.11-.25.37.37,0,0,1,.49,0,.36.36,0,0,1,.1.25.34.34,0,0,1-.35.35Z"/><path class="cls-3" d="M18.75,55.85a.34.34,0,0,1-.35-.35.33.33,0,0,1,.11-.25.37.37,0,0,1,.49,0,.36.36,0,0,1,.1.25.34.34,0,0,1-.35.35Z"/><path class="cls-3" d="M16.25,54.85a.34.34,0,0,1-.35-.35.33.33,0,0,1,.11-.25.37.37,0,0,1,.49,0,.36.36,0,0,1,.1.25.34.34,0,0,1-.35.35Z"/><path class="cls-3" d="M19.25,51.1a.34.34,0,0,1-.35-.35A.33.33,0,0,1,19,50.5a.37.37,0,0,1,.49,0,.36.36,0,0,1,.1.25.34.34,0,0,1-.35.35Z"/><path class="cls-3" d="M19,47.1a.35.35,0,0,1-.25-.6.38.38,0,0,1,.5,0,.35.35,0,0,1-.25.6Z"/><path class="cls-3" d="M16.25,47.35a.35.35,0,0,1-.25-.6.37.37,0,0,1,.5,0,.35.35,0,0,1-.25.6Z"/><path class="cls-3" d="M32.5,50.85a.34.34,0,0,1-.35-.35.33.33,0,0,1,.11-.25.35.35,0,0,1,.59.25.34.34,0,0,1-.35.35Z"/><path class="cls-3" d="M27.25,54.35a.35.35,0,0,1-.25-.6.37.37,0,0,1,.5,0,.35.35,0,0,1-.25.6Z"/><path class="cls-3" d="M32,55.85a.35.35,0,0,1-.25-.6.37.37,0,0,1,.5,0,.35.35,0,0,1-.25.6Z"/><path class="cls-3" d="M32,57.6a.35.35,0,0,1-.24-.1.35.35,0,0,1,0-.5.37.37,0,0,1,.5,0,.36.36,0,0,1,.1.25.34.34,0,0,1-.35.35Z"/><path class="cls-3" d="M34,58.35a.35.35,0,0,1-.25-.6.37.37,0,0,1,.5,0,.35.35,0,0,1-.25.6Z"/><path class="cls-3" d="M26,64.85a.35.35,0,0,1-.25-.6.36.36,0,0,1,.6.25.34.34,0,0,1-.35.35Z"/><path class="cls-3" d="M36,56.35a.35.35,0,0,1-.25-.6.36.36,0,0,1,.6.25.34.34,0,0,1-.35.35Z"/><path class="cls-3" d="M39.25,56.1A.35.35,0,0,1,39,56a.36.36,0,0,1-.11-.25.39.39,0,0,1,.1-.25.37.37,0,0,1,.5,0,.35.35,0,0,1-.25.6Z"/><path class="cls-3" d="M41.75,50.85a.35.35,0,0,1-.25-.6.37.37,0,0,1,.5,0,.35.35,0,0,1-.25.6Z"/><path class="cls-3" d="M43.5,44.85a.36.36,0,0,1-.25-.11.35.35,0,0,1-.1-.24.39.39,0,0,1,.1-.25.37.37,0,0,1,.5,0,.35.35,0,0,1-.25.6Z"/><path class="cls-3" d="M51,50.6a.39.39,0,0,1-.25-.1.36.36,0,0,1-.1-.25.39.39,0,0,1,.1-.25.36.36,0,0,1,.5,0,.35.35,0,0,1-.25.6Z"/><path class="cls-3" d="M52,46.6a.36.36,0,0,1-.25-.11.35.35,0,0,1-.1-.24.33.33,0,0,1,.11-.25.37.37,0,0,1,.49,0,.36.36,0,0,1,.1.25.34.34,0,0,1-.35.35Z"/><path class="cls-3" d="M55,47.1a.33.33,0,0,1-.25-.11.35.35,0,0,1-.1-.24.37.37,0,0,1,.1-.25.36.36,0,0,1,.49,0,.34.34,0,0,1,.11.25.34.34,0,0,1-.35.35Z"/><path class="cls-3" d="M55,54.35a.33.33,0,0,1-.25-.11.35.35,0,0,1-.1-.24.33.33,0,0,1,.11-.25.37.37,0,0,1,.49,0,.36.36,0,0,1,.1.25.34.34,0,0,1-.35.35Z"/><path class="cls-3" d="M51.25,56.35a.35.35,0,0,1-.25-.6.37.37,0,0,1,.5,0,.35.35,0,0,1,.1.25.39.39,0,0,1-.1.25A.37.37,0,0,1,51.25,56.35Z"/><path class="cls-3" d="M51,63.85a.34.34,0,0,1-.35-.35.31.31,0,0,1,.1-.24.34.34,0,0,1,.49,0,.36.36,0,0,1,.11.25.39.39,0,0,1-.1.25A.37.37,0,0,1,51,63.85Z"/><path class="cls-3" d="M53.25,63.85a.34.34,0,0,1-.35-.35.33.33,0,0,1,.11-.25.36.36,0,0,1,.49,0,.31.31,0,0,1,.1.24.34.34,0,0,1-.35.35Z"/><path class="cls-3" d="M56,63.1a.35.35,0,0,1-.25-.6.36.36,0,0,1,.6.25.34.34,0,0,1-.35.35Z"/><path class="cls-3" d="M58.25,61.6a.36.36,0,0,1-.25-.11.35.35,0,0,1-.1-.24A.39.39,0,0,1,58,61a.37.37,0,0,1,.5,0,.37.37,0,0,1,.1.25.34.34,0,0,1-.35.35Z"/><path class="cls-3" d="M21,27.1a.35.35,0,0,1-.25-.6.36.36,0,0,1,.6.25.34.34,0,0,1-.35.35Z"/><path class="cls-3" d="M22.75,24.1a.35.35,0,0,1-.25-.6.37.37,0,0,1,.5,0,.35.35,0,0,1-.25.6Z"/><path class="cls-3" d="M39,24.85a.35.35,0,0,1-.25-.6.37.37,0,0,1,.5,0,.35.35,0,0,1-.25.6Z"/><path class="cls-3" d="M46.25,29.1A.39.39,0,0,1,46,29a.35.35,0,0,1,0-.49.34.34,0,0,1,.49,0,.36.36,0,0,1,.11.25.34.34,0,0,1-.35.35Z"/><path class="cls-3" d="M55.25,28.1a.35.35,0,0,1-.25-.6.37.37,0,0,1,.5,0,.35.35,0,0,1-.25.6Z"/><path class="cls-3" d="M51.25,25.35a.35.35,0,0,1-.25-.6.37.37,0,0,1,.5,0,.35.35,0,0,1,.1.25.34.34,0,0,1-.35.35Z"/><path class="cls-3" d="M52,29.6a.37.37,0,0,1-.25-.1.36.36,0,0,1,0-.5.36.36,0,0,1,.6.25.34.34,0,0,1-.35.35Z"/><path class="cls-3" d="M62.5,35.6a.34.34,0,0,1-.35-.35.33.33,0,0,1,.11-.25.36.36,0,0,1,.49,0,.31.31,0,0,1,.1.24.34.34,0,0,1-.35.35Z"/><path class="cls-3" d="M56.75,39.1a.35.35,0,0,1-.25-.6.36.36,0,0,1,.6.25.34.34,0,0,1-.35.35Z"/><path class="cls-3" d="M48.25,37.35a.35.35,0,0,1-.24-.1A.36.36,0,0,1,47.9,37a.39.39,0,0,1,.1-.25.36.36,0,0,1,.5,0,.33.33,0,0,1,.1.24.34.34,0,0,1-.35.35Z"/><path class="cls-3" d="M48,41.35a.33.33,0,0,1-.25-.11.35.35,0,0,1-.1-.24.39.39,0,0,1,.1-.25.38.38,0,0,1,.5,0,.35.35,0,0,1-.25.6Z"/><path class="cls-3" d="M53.5,45.1a.34.34,0,0,1-.25-.11.31.31,0,0,1-.1-.24.34.34,0,0,1,.11-.25.37.37,0,0,1,.49,0,.35.35,0,0,1-.25.6Z"/><path class="cls-3" d="M62.25,48.1a.34.34,0,0,1-.35-.35A.33.33,0,0,1,62,47.5a.36.36,0,0,1,.49,0,.31.31,0,0,1,.1.24.34.34,0,0,1-.35.35Z"/><path class="cls-3" d="M65,51.85a.34.34,0,0,1-.35-.35.33.33,0,0,1,.11-.25.37.37,0,0,1,.49,0,.36.36,0,0,1,.1.25.34.34,0,0,1-.35.35Z"/><path class="cls-3" d="M69.5,45.1a.35.35,0,0,1-.25-.6.37.37,0,0,1,.5,0,.35.35,0,0,1-.25.6Z"/><path class="cls-3" d="M60,39.1a.33.33,0,0,1-.25-.11.35.35,0,0,1-.1-.24.34.34,0,0,1,.11-.25.36.36,0,0,1,.49,0,.36.36,0,0,1,0,.5A.37.37,0,0,1,60,39.1Z"/><path class="cls-3" d="M32.5,47.1a.35.35,0,0,1-.25-.6.36.36,0,0,1,.6.25.34.34,0,0,1-.35.35Z"/><path class="cls-3" d="M26.25,37.85a.35.35,0,0,1-.25-.6.36.36,0,0,1,.6.25.34.34,0,0,1-.35.35Z"/><path class="cls-3" d="M29.75,35.6a.35.35,0,0,1-.24-.1.36.36,0,0,1-.11-.25.33.33,0,0,1,.11-.25A.37.37,0,0,1,30,35a.36.36,0,0,1,.1.25.34.34,0,0,1-.35.35Z"/><path class="cls-3" d="M10.5,29.6a.35.35,0,0,1-.25-.6.37.37,0,0,1,.49,0,.33.33,0,0,1,.11.25.34.34,0,0,1-.35.35Z"/><path class="cls-3" d="M6,31.6a.35.35,0,0,1-.25-.6.36.36,0,0,1,.49,0,.33.33,0,0,1,.11.25.37.37,0,0,1-.1.25A.39.39,0,0,1,6,31.6Z"/><path class="cls-3" d="M2.5,35.35a.39.39,0,0,1-.25-.1.36.36,0,0,1,0-.5.37.37,0,0,1,.5,0,.35.35,0,0,1,.1.25.33.33,0,0,1-.1.24A.36.36,0,0,1,2.5,35.35Z"/><path class="cls-3" d="M17,42.1a.34.34,0,0,1-.35-.35.33.33,0,0,1,.11-.25.35.35,0,0,1,.59.25.39.39,0,0,1-.1.25A.37.37,0,0,1,17,42.1Z"/><path class="cls-3" d="M12.75,36.1a.34.34,0,0,1-.35-.35.33.33,0,0,1,.11-.25.37.37,0,0,1,.49,0,.36.36,0,0,1,.1.25A.39.39,0,0,1,13,36,.37.37,0,0,1,12.75,36.1Z"/><path class="cls-3" d="M26.5,30.35a.35.35,0,0,1-.25-.6.37.37,0,0,1,.5,0,.35.35,0,0,1-.25.6Z"/><path class="cls-3" d="M39.25,30.85a.35.35,0,0,1-.25-.6.37.37,0,0,1,.5,0,.36.36,0,0,1,0,.5A.37.37,0,0,1,39.25,30.85Z"/><path class="cls-3" d="M38.25,32.85a.35.35,0,0,1-.25-.6.37.37,0,0,1,.5,0,.35.35,0,0,1-.25.6Z"/><path class="cls-3" d="M28,42.1a.35.35,0,0,1-.25-.6.37.37,0,0,1,.5,0,.35.35,0,0,1-.25.6Z"/><path class="cls-3" d="M6.5,20.6a.35.35,0,0,1-.25-.6.37.37,0,0,1,.5,0,.35.35,0,0,1-.25.6Z"/><path class="cls-3" d="M9.75,18.85a.35.35,0,0,1-.25-.6.36.36,0,0,1,.6.25.34.34,0,0,1-.35.35Z"/><path class="cls-3" d="M11.75,23.6a.34.34,0,0,1-.35-.35.33.33,0,0,1,.11-.25A.37.37,0,0,1,12,23a.36.36,0,0,1,.1.25.39.39,0,0,1-.1.25A.37.37,0,0,1,11.75,23.6Z"/><path class="cls-3" d="M3,25.85a.39.39,0,0,1-.25-.1.36.36,0,0,1,0-.5.38.38,0,0,1,.5,0,.36.36,0,0,1,0,.5A.39.39,0,0,1,3,25.85Z"/><path class="cls-3" d="M64.25,29.6a.35.35,0,0,1-.24-.1.36.36,0,0,1-.11-.25A.39.39,0,0,1,64,29a.36.36,0,0,1,.6.25.34.34,0,0,1-.35.35Z"/><path class="cls-3" d="M69.5,29.85a.34.34,0,0,1-.35-.35.34.34,0,0,1,.11-.25.37.37,0,0,1,.49,0,.36.36,0,0,1,.1.25.39.39,0,0,1-.1.25A.37.37,0,0,1,69.5,29.85Z"/><path class="cls-3" d="M1.5,9.1A.39.39,0,0,1,1.25,9a.36.36,0,0,1,0-.5.38.38,0,0,1,.5,0,.36.36,0,0,1,0,.5A.39.39,0,0,1,1.5,9.1Z"/><path class="cls-3" d="M16.5,6.1a.34.34,0,0,1-.35-.35.37.37,0,0,1,.1-.25.38.38,0,0,1,.5,0,.35.35,0,0,1-.25.6Z"/><path class="cls-3" d="M3.75,6.1a.35.35,0,0,1-.25-.6.36.36,0,0,1,.6.25.34.34,0,0,1-.35.35Z"/><path class="cls-3" d="M12.75,14.35a.35.35,0,0,1-.25-.6.36.36,0,0,1,.6.25.34.34,0,0,1-.35.35Z"/><path class="cls-3" d="M18.5,19.35a.34.34,0,0,1-.35-.35.37.37,0,0,1,.1-.25.36.36,0,0,1,.6.25.34.34,0,0,1-.35.35Z"/><path class="cls-3" d="M21.25,37.1a.34.34,0,0,1-.35-.35.37.37,0,0,1,.1-.25.37.37,0,0,1,.49,0,.36.36,0,0,1,.11.25.34.34,0,0,1-.35.35Z"/><path class="cls-3" d="M.75,44.35a.39.39,0,0,1-.25-.1A.39.39,0,0,1,.4,44a.33.33,0,0,1,.11-.25.37.37,0,0,1,.49,0,.36.36,0,0,1,.1.25.39.39,0,0,1-.1.25A.39.39,0,0,1,.75,44.35Z"/><path class="cls-3" d="M68,66.1a.34.34,0,0,1-.35-.35.33.33,0,0,1,.11-.25.37.37,0,0,1,.49,0,.36.36,0,0,1,.1.25.34.34,0,0,1-.35.35Z"/><path class="cls-3" d="M59.75,69.85a.39.39,0,0,1-.25-.1.35.35,0,0,1-.1-.25.39.39,0,0,1,.1-.25.37.37,0,0,1,.5,0,.36.36,0,0,1,.1.25.37.37,0,0,1-.1.25A.39.39,0,0,1,59.75,69.85Z"/><path class="cls-3" d="M40.5,68.1a.35.35,0,0,1-.25-.6.37.37,0,0,1,.5,0,.36.36,0,0,1,0,.5A.37.37,0,0,1,40.5,68.1Z"/><path class="cls-3" d="M4.5,60.1a.35.35,0,0,1-.25-.6.36.36,0,0,1,.6.25.34.34,0,0,1-.35.35Z"/><path class="cls-3" d="M26.5,59.6a.35.35,0,0,1-.25-.6.36.36,0,0,1,.6.25.34.34,0,0,1-.35.35Z"/><path class="cls-3" d="M37.25,48.6a.34.34,0,0,1-.35-.35A.37.37,0,0,1,37,48a.37.37,0,0,1,.5,0,.36.36,0,0,1,0,.5A.37.37,0,0,1,37.25,48.6Z"/><path class="cls-3" d="M8.75,40.35a.35.35,0,0,1-.25-.6.36.36,0,0,1,.6.25.34.34,0,0,1-.35.35Z"/><path class="cls-3" d="M52.25,38.1A.36.36,0,0,1,52,38a.35.35,0,0,1-.1-.24A.33.33,0,0,1,52,37.5a.37.37,0,0,1,.49,0,.36.36,0,0,1,.1.25.34.34,0,0,1-.35.35Z"/><path class="cls-3" d="M60.75,46.1a.34.34,0,0,1-.35-.35.33.33,0,0,1,.11-.25.37.37,0,0,1,.49,0,.36.36,0,0,1,.1.25.34.34,0,0,1-.35.35Z"/><path class="cls-3" d="M51.25,66.35a.35.35,0,0,1-.25-.6.37.37,0,0,1,.5,0,.39.39,0,0,1,.1.25.35.35,0,0,1-.1.25A.39.39,0,0,1,51.25,66.35Z"/><path class="cls-3" d="M40,37.85a.35.35,0,0,1-.25-.6.36.36,0,0,1,.6.25.34.34,0,0,1-.35.35Z"/><path class="cls-3" d="M27.5,13.6a.35.35,0,0,1-.25-.6.36.36,0,0,1,.6.25.34.34,0,0,1-.35.35Z"/><path class="cls-3" d="M19.75,26.6a.34.34,0,0,1-.35-.35.37.37,0,0,1,.1-.25A.37.37,0,0,1,20,26a.36.36,0,0,1,.11.25.34.34,0,0,1-.35.35Z"/><path class="cls-3" d="M11.75,1.85a.39.39,0,0,1-.25-.1.39.39,0,0,1-.1-.25.39.39,0,0,1,.1-.25.38.38,0,0,1,.5,0,.39.39,0,0,1,.1.25.39.39,0,0,1-.1.25A.39.39,0,0,1,11.75,1.85Z"/><path class="cls-3" d="M55.25,3.85a.34.34,0,0,1-.35-.35A.33.33,0,0,1,55,3.25a.37.37,0,0,1,.49,0,.36.36,0,0,1,.1.25.34.34,0,0,1-.35.35Z"/><path class="cls-3" d="M47.25,69.85a.39.39,0,0,1-.25-.1.37.37,0,0,1-.1-.25.39.39,0,0,1,.1-.25.36.36,0,0,1,.6.25.34.34,0,0,1-.35.35Z"/><path class="cls-3" d="M4.75,40.35A.34.34,0,0,1,4.4,40a.33.33,0,0,1,.11-.25.37.37,0,0,1,.49,0,.36.36,0,0,1,.1.25.34.34,0,0,1-.35.35Z"/><path class="cls-3" d="M68.75,13.35a.35.35,0,0,1-.25-.6.37.37,0,0,1,.5,0,.36.36,0,0,1,0,.5A.39.39,0,0,1,68.75,13.35Z"/><path class="cls-3" d="M23.25,14.1a.35.35,0,0,1-.25-.6.36.36,0,0,1,.6.25.34.34,0,0,1-.35.35Z"/><path class="cls-3" d="M20.5,17.35a.35.35,0,0,1-.25-.6.37.37,0,0,1,.5,0,.35.35,0,0,1-.25.6Z"/><path class="cls-3" d="M14.75,17.35A.34.34,0,0,1,14.4,17a.33.33,0,0,1,.11-.25.37.37,0,0,1,.49,0,.36.36,0,0,1,.1.25.34.34,0,0,1-.35.35Z"/><path class="cls-3" d="M6,11.85a.35.35,0,0,1-.25-.6.36.36,0,0,1,.49,0,.33.33,0,0,1,.11.25.34.34,0,0,1-.35.35Z"/><path class="cls-3" d="M7,2.85a.37.37,0,0,1-.24-.1.36.36,0,0,1-.11-.25.39.39,0,0,1,.1-.25.36.36,0,0,1,.6.25.39.39,0,0,1-.1.25A.39.39,0,0,1,7,2.85Z"/><path class="cls-3" d="M10,8.35a.35.35,0,0,1-.25-.6.36.36,0,0,1,.6.25.34.34,0,0,1-.35.35Z"/><path class="cls-3" d="M14.25,8.35A.34.34,0,0,1,13.9,8,.33.33,0,0,1,14,7.75a.37.37,0,0,1,.49,0,.36.36,0,0,1,.1.25.34.34,0,0,1-.35.35Z"/><path class="cls-3" d="M25.75,7.1a.35.35,0,0,1-.25-.6.36.36,0,0,1,.6.25.34.34,0,0,1-.35.35Z"/><path class="cls-3" d="M37,7.6a.35.35,0,0,1-.25-.6.37.37,0,0,1,.5,0,.35.35,0,0,1-.25.6Z"/><path class="cls-3" d="M37.5,4.35A.34.34,0,0,1,37.15,4a.33.33,0,0,1,.11-.25.35.35,0,0,1,.59.25.34.34,0,0,1-.35.35Z"/><path class="cls-3" d="M43.25,2.35a.39.39,0,0,1-.25-.1A.39.39,0,0,1,42.9,2a.39.39,0,0,1,.1-.25.37.37,0,0,1,.5,0,.39.39,0,0,1,.1.25.39.39,0,0,1-.1.25A.42.42,0,0,1,43.25,2.35Z"/><path class="cls-3" d="M49.5,8.35a.39.39,0,0,1-.25-.1.36.36,0,0,1,0-.5.37.37,0,0,1,.5,0,.35.35,0,0,1-.25.6Z"/><path class="cls-3" d="M46,9.35a.35.35,0,0,1-.25-.6.37.37,0,0,1,.5,0,.36.36,0,0,1,0,.5A.37.37,0,0,1,46,9.35Z"/><path class="cls-3" d="M35.75,11.1a.34.34,0,0,1-.35-.35.37.37,0,0,1,.1-.25.36.36,0,0,1,.6.25.34.34,0,0,1-.35.35Z"/><path class="cls-3" d="M39.25,15.1a.35.35,0,0,1-.25-.6.36.36,0,0,1,.6.25.34.34,0,0,1-.35.35Z"/><path class="cls-3" d="M24.75,18.1a.35.35,0,0,1-.25-.6.36.36,0,0,1,.6.25.34.34,0,0,1-.35.35Z"/><path class="cls-3" d="M8.25,27.35a.35.35,0,0,1-.25-.6.36.36,0,0,1,.6.25.34.34,0,0,1-.35.35Z"/><path class="cls-3" d="M16,31.85a.35.35,0,0,1-.25-.6.38.38,0,0,1,.5,0,.35.35,0,0,1-.25.6Z"/><path class="cls-3" d="M10.5,33.6a.34.34,0,0,1-.35-.35.33.33,0,0,1,.11-.25.37.37,0,0,1,.49,0,.36.36,0,0,1,.1.25.37.37,0,0,1-.1.25A.39.39,0,0,1,10.5,33.6Z"/><path class="cls-3" d="M5.25,37.1A.35.35,0,0,1,5,36.5a.38.38,0,0,1,.5,0,.37.37,0,0,1,.1.25.34.34,0,0,1-.35.35Z"/><path class="cls-3" d="M3.25,20.6A.35.35,0,0,1,3,20a.38.38,0,0,1,.5,0,.35.35,0,0,1-.25.6Z"/><path class="cls-3" d="M20.5,30.85a.34.34,0,0,1-.35-.35.33.33,0,0,1,.11-.25.35.35,0,0,1,.59.25.34.34,0,0,1-.35.35Z"/><path class="cls-3" d="M17.5,35.6a.35.35,0,0,1-.25-.6.37.37,0,0,1,.5,0,.35.35,0,0,1-.25.6Z"/><path class="cls-3" d="M16,39.1a.34.34,0,0,1-.35-.35.33.33,0,0,1,.11-.25.37.37,0,0,1,.49,0,.36.36,0,0,1,.1.25.39.39,0,0,1-.1.25A.37.37,0,0,1,16,39.1Z"/><path class="cls-3" d="M12.75,41.35A.34.34,0,0,1,12.4,41a.33.33,0,0,1,.11-.25.37.37,0,0,1,.49,0,.36.36,0,0,1,.1.25.34.34,0,0,1-.35.35Z"/><path class="cls-3" d="M12.75,46.6a.34.34,0,0,1-.35-.35.33.33,0,0,1,.11-.25A.37.37,0,0,1,13,46a.36.36,0,0,1,.1.25.34.34,0,0,1-.35.35Z"/><path class="cls-3" d="M5.75,48.6A.35.35,0,0,1,5.5,48,.38.38,0,0,1,6,48a.35.35,0,0,1-.25.6Z"/><path class="cls-3" d="M11,54.6a.35.35,0,0,1-.25-.6.38.38,0,0,1,.5,0,.35.35,0,0,1-.25.6Z"/><path class="cls-3" d="M15.5,58.6a.35.35,0,0,1-.25-.6.37.37,0,0,1,.5,0,.35.35,0,0,1-.25.6Z"/><path class="cls-3" d="M6,63.6a.35.35,0,0,1-.25-.6.38.38,0,0,1,.5,0,.36.36,0,0,1,.1.25A.34.34,0,0,1,6,63.6Z"/><path class="cls-3" d="M2.25,62.1A.39.39,0,0,1,2,62a.36.36,0,0,1,0-.5.37.37,0,0,1,.49,0,.34.34,0,0,1,.11.25.39.39,0,0,1-.1.25A.39.39,0,0,1,2.25,62.1Z"/><path class="cls-3" d="M9,68.1a.35.35,0,0,1-.25-.6.36.36,0,0,1,.6.25.39.39,0,0,1-.1.25A.37.37,0,0,1,9,68.1Z"/><path class="cls-3" d="M13.5,69.6a.35.35,0,0,1-.25-.6.38.38,0,0,1,.5,0,.35.35,0,0,1-.25.6Z"/><path class="cls-3" d="M21.5,68.6a.34.34,0,0,1-.35-.35.33.33,0,0,1,.11-.25.35.35,0,0,1,.59.25.34.34,0,0,1-.35.35Z"/><path class="cls-3" d="M23,65.85a.35.35,0,0,1-.25-.6.37.37,0,0,1,.5,0,.36.36,0,0,1,0,.5A.37.37,0,0,1,23,65.85Z"/><path class="cls-3" d="M22.25,60.1a.35.35,0,0,1-.25-.6.38.38,0,0,1,.5,0,.36.36,0,0,1,0,.5A.37.37,0,0,1,22.25,60.1Z"/><path class="cls-3" d="M24.25,57.6a.34.34,0,0,1-.35-.35A.37.37,0,0,1,24,57a.38.38,0,0,1,.5,0,.37.37,0,0,1,.1.25.39.39,0,0,1-.1.25A.37.37,0,0,1,24.25,57.6Z"/><path class="cls-3" d="M26.25,47.85a.35.35,0,0,1-.25-.6.37.37,0,0,1,.5,0,.35.35,0,0,1-.25.6Z"/><path class="cls-3" d="M25.75,43.6a.35.35,0,0,1-.25-.6.37.37,0,0,1,.5,0,.35.35,0,0,1-.25.6Z"/><path class="cls-3" d="M32.25,31.1a.34.34,0,0,1-.35-.35A.33.33,0,0,1,32,30.5a.35.35,0,0,1,.59.25.34.34,0,0,1-.35.35Z"/><path class="cls-3" d="M34.25,27.85a.34.34,0,0,1-.35-.35.35.35,0,0,1,.1-.25.37.37,0,0,1,.5,0,.36.36,0,0,1,0,.5A.37.37,0,0,1,34.25,27.85Z"/><path class="cls-3" d="M41.75,25.85a.35.35,0,0,1-.25-.6.37.37,0,0,1,.5,0,.35.35,0,0,1-.25.6Z"/><path class="cls-3" d="M43,20.85a.36.36,0,0,1-.25-.11.33.33,0,0,1-.1-.24.39.39,0,0,1,.1-.25.37.37,0,0,1,.5,0,.39.39,0,0,1,.1.25.34.34,0,0,1-.11.25A.35.35,0,0,1,43,20.85Z"/><path class="cls-3" d="M36.5,19.35a.39.39,0,0,1-.25-.1.36.36,0,0,1-.1-.25.31.31,0,0,1,.1-.24.35.35,0,0,1,.5,0,.35.35,0,0,1-.25.6Z"/><path class="cls-3" d="M27.75,22.35a.35.35,0,0,1-.25-.6.37.37,0,0,1,.5,0,.35.35,0,0,1-.25.6Z"/><path class="cls-3" d="M52,22.1a.33.33,0,0,1-.25-.11.35.35,0,0,1-.1-.24.39.39,0,0,1,.1-.25.36.36,0,0,1,.6.25.39.39,0,0,1-.1.25A.37.37,0,0,1,52,22.1Z"/><path class="cls-3" d="M43.25,17.85a.37.37,0,0,1-.25-.1.36.36,0,0,1,0-.5.38.38,0,0,1,.5,0,.35.35,0,0,1-.25.6Z"/><path class="cls-3" d="M50.5,18.1a.37.37,0,0,1-.25-.1.36.36,0,0,1,0-.5.36.36,0,0,1,.6.25.34.34,0,0,1-.35.35Z"/><path class="cls-3" d="M59.5,17.35a.34.34,0,0,1-.35-.35.33.33,0,0,1,.11-.25.37.37,0,0,1,.49,0,.36.36,0,0,1,.1.25.34.34,0,0,1-.35.35Z"/><path class="cls-3" d="M58.25,14.1A.37.37,0,0,1,58,14a.36.36,0,0,1,0-.5.36.36,0,0,1,.6.25.34.34,0,0,1-.35.35Z"/><path class="cls-3" d="M61.5,11.1a.34.34,0,0,1-.35-.35.33.33,0,0,1,.11-.25.36.36,0,0,1,.49,0,.31.31,0,0,1,.1.24.34.34,0,0,1-.35.35Z"/><path class="cls-3" d="M58.75,7.6a.39.39,0,0,1-.25-.1.35.35,0,0,1-.1-.25A.31.31,0,0,1,58.5,7a.35.35,0,0,1,.6.24.34.34,0,0,1-.35.35Z"/><path class="cls-3" d="M60,4.85a.34.34,0,0,1-.25-.11.35.35,0,0,1-.1-.24.33.33,0,0,1,.11-.25.37.37,0,0,1,.49,0,.36.36,0,0,1,.1.25.34.34,0,0,1-.35.35Z"/><path class="cls-3" d="M67.5,6.1a.39.39,0,0,1-.25-.1.36.36,0,0,1-.1-.25.37.37,0,0,1,.1-.25.38.38,0,0,1,.5,0,.35.35,0,0,1-.25.6Z"/><path class="cls-3" d="M70.75,8.6a.39.39,0,0,1-.25-.1.36.36,0,0,1-.1-.25A.37.37,0,0,1,70.5,8,.37.37,0,0,1,71,8a.36.36,0,0,1,.11.25.34.34,0,0,1-.35.35Z"/><path class="cls-3" d="M65.75,9.85a.34.34,0,0,1-.35-.35.37.37,0,0,1,.1-.25.38.38,0,0,1,.5,0,.35.35,0,0,1-.25.6Z"/><path class="cls-3" d="M60.25,23.85a.35.35,0,0,1-.25-.6.37.37,0,0,1,.5,0,.35.35,0,0,1-.25.6Z"/><path class="cls-3" d="M55.5,23.85a.35.35,0,0,1-.25-.6.38.38,0,0,1,.5,0,.35.35,0,0,1-.25.6Z"/><path class="cls-3" d="M55.5,18.85a.34.34,0,0,1-.25-.11.35.35,0,0,1-.1-.24.33.33,0,0,1,.11-.25.37.37,0,0,1,.49,0,.36.36,0,0,1,.1.25.34.34,0,0,1-.35.35Z"/><path class="cls-3" d="M65,25.85a.34.34,0,0,1-.35-.35.33.33,0,0,1,.11-.25.37.37,0,0,1,.49,0,.36.36,0,0,1,.1.25.34.34,0,0,1-.35.35Z"/><path class="cls-3" d="M57.75,30.85a.33.33,0,0,1-.25-.11.35.35,0,0,1-.1-.24.33.33,0,0,1,.11-.25.37.37,0,0,1,.49,0,.36.36,0,0,1,.1.25.34.34,0,0,1-.35.35Z"/><path class="cls-3" d="M52.75,32.85a.36.36,0,0,1-.25-.11.35.35,0,0,1-.1-.24.33.33,0,0,1,.11-.25.37.37,0,0,1,.49,0,.36.36,0,0,1,.1.25.34.34,0,0,1-.35.35Z"/><path class="cls-3" d="M47.5,33.85a.36.36,0,0,1-.25-.11.35.35,0,0,1-.1-.24.33.33,0,0,1,.11-.25.37.37,0,0,1,.49,0,.36.36,0,0,1,.1.25.34.34,0,0,1-.35.35Z"/><path class="cls-3" d="M44.25,39.35a.36.36,0,0,1-.25-.11.35.35,0,0,1-.1-.24.39.39,0,0,1,.1-.25.37.37,0,0,1,.5,0,.37.37,0,0,1,.1.25.33.33,0,0,1-.11.25A.35.35,0,0,1,44.25,39.35Z"/><path class="cls-3" d="M34,41.6a.35.35,0,0,1-.25-.6.37.37,0,0,1,.5,0,.35.35,0,0,1-.25.6Z"/><path class="cls-3" d="M40.75,48.1a.35.35,0,0,1-.25-.6.36.36,0,0,1,.49,0,.34.34,0,0,1,.11.25.34.34,0,0,1-.35.35Z"/><path class="cls-3" d="M45.75,52.35A.34.34,0,0,1,45.4,52a.33.33,0,0,1,.11-.25.35.35,0,0,1,.59.25.34.34,0,0,1-.35.35Z"/><path class="cls-3" d="M46.5,56.85a.35.35,0,0,1-.25-.6.35.35,0,0,1,.49,0,.36.36,0,0,1,.11.25.34.34,0,0,1-.35.35Z"/><path class="cls-3" d="M42,59.6a.35.35,0,0,1-.24-.1.36.36,0,0,1-.11-.25.39.39,0,0,1,.1-.25.37.37,0,0,1,.5,0,.35.35,0,0,1-.25.6Z"/><path class="cls-3" d="M40,62.85a.35.35,0,0,1-.25-.6.37.37,0,0,1,.5,0,.36.36,0,0,1,0,.5A.37.37,0,0,1,40,62.85Z"/><path class="cls-3" d="M36,62.85a.34.34,0,0,1-.35-.35.33.33,0,0,1,.11-.25.35.35,0,0,1,.59.25.34.34,0,0,1-.35.35Z"/><path class="cls-3" d="M36.5,52.85a.39.39,0,0,1-.25-.1.35.35,0,0,1-.1-.25.39.39,0,0,1,.1-.25.36.36,0,0,1,.5,0,.31.31,0,0,1,.1.24.34.34,0,0,1-.35.35Z"/><path class="cls-3" d="M30,63.6a.35.35,0,0,1-.24-.1.36.36,0,0,1-.11-.25.33.33,0,0,1,.11-.25.37.37,0,0,1,.49,0,.36.36,0,0,1,.1.25.34.34,0,0,1-.35.35Z"/><path class="cls-3" d="M31.5,68.6a.35.35,0,0,1-.25-.6.37.37,0,0,1,.5,0,.35.35,0,0,1-.25.6Z"/><path class="cls-3" d="M37,71.1a.39.39,0,0,1-.25-.1.37.37,0,0,1-.1-.25.33.33,0,0,1,.11-.25.37.37,0,0,1,.49,0,.36.36,0,0,1,.1.25.37.37,0,0,1-.1.25A.39.39,0,0,1,37,71.1Z"/><path class="cls-3" d="M63,57.1a.34.34,0,0,1-.35-.35.33.33,0,0,1,.11-.25.37.37,0,0,1,.49,0,.36.36,0,0,1,.1.25.34.34,0,0,1-.35.35Z"/><path class="cls-3" d="M60,50.85a.33.33,0,0,1-.25-.11.35.35,0,0,1-.1-.24.35.35,0,0,1,.59-.25.36.36,0,0,1,.11.25.39.39,0,0,1-.1.25A.37.37,0,0,1,60,50.85Z"/><path class="cls-3" d="M54.5,50.6a.39.39,0,0,1-.25-.1.37.37,0,0,1-.1-.25.35.35,0,0,1,.7,0,.35.35,0,0,1-.1.24A.34.34,0,0,1,54.5,50.6Z"/><path class="cls-3" d="M54.75,41.85a.36.36,0,0,1-.25-.11.33.33,0,0,1-.1-.24.39.39,0,0,1,.1-.25.37.37,0,0,1,.5,0,.39.39,0,0,1,.1.25.34.34,0,0,1-.11.25A.35.35,0,0,1,54.75,41.85Z"/><path class="cls-3" d="M62.5,42.35a.35.35,0,0,1-.25-.6.37.37,0,0,1,.5,0,.35.35,0,0,1-.25.6Z"/><path class="cls-3" d="M67,47.6a.35.35,0,0,1-.24-.1.36.36,0,0,1-.11-.25.39.39,0,0,1,.1-.25.36.36,0,0,1,.49,0,.32.32,0,0,1,.11.25.34.34,0,0,1-.35.35Z"/><path class="cls-3" d="M69.5,54.35a.35.35,0,0,1-.24-.1.36.36,0,0,1-.11-.25.39.39,0,0,1,.1-.25.36.36,0,0,1,.6.25.34.34,0,0,1-.35.35Z"/><path class="cls-3" d="M63.5,61.85a.35.35,0,0,1-.24-.1.36.36,0,0,1-.11-.25.39.39,0,0,1,.1-.25.36.36,0,0,1,.49,0,.32.32,0,0,1,.11.25.34.34,0,0,1-.35.35Z"/><path class="cls-3" d="M70.25,61.1a.34.34,0,0,1-.35-.35A.33.33,0,0,1,70,60.5a.37.37,0,0,1,.49,0,.36.36,0,0,1,.1.25.34.34,0,0,1-.35.35Z"/><path class="cls-3" d="M64.75,65.6a.35.35,0,0,1-.25-.6.36.36,0,0,1,.5,0,.35.35,0,0,1,.1.24.34.34,0,0,1-.35.35Z"/><path class="cls-3" d="M65.75,68.35a.35.35,0,0,1-.25-.6.37.37,0,0,1,.5,0,.35.35,0,0,1-.25.6Z"/><path class="cls-3" d="M62.5,70.35a.34.34,0,0,1-.35-.35.34.34,0,0,1,.11-.25.36.36,0,0,1,.49,0,.31.31,0,0,1,.1.24.34.34,0,0,1-.35.35Z"/><path class="cls-3" d="M52.75,69.85a.36.36,0,0,1-.25-.1.36.36,0,0,1,0-.5.36.36,0,0,1,.6.25.39.39,0,0,1-.1.25A.37.37,0,0,1,52.75,69.85Z"/><path class="cls-3" d="M44.75,66.6a.34.34,0,0,1-.25-.11.35.35,0,0,1-.1-.24.33.33,0,0,1,.11-.25A.37.37,0,0,1,45,66a.36.36,0,0,1,.1.25.34.34,0,0,1-.35.35Z"/><path class="cls-3" d="M28.5,71.35a.39.39,0,0,1-.25-.1.36.36,0,0,1-.1-.25.33.33,0,0,1,.11-.25.35.35,0,0,1,.59.25.33.33,0,0,1-.11.25A.35.35,0,0,1,28.5,71.35Z"/><path class="cls-3" d="M3,29.6a.39.39,0,0,1-.25-.1.36.36,0,0,1,0-.5.38.38,0,0,1,.5,0,.36.36,0,0,1,0,.5A.39.39,0,0,1,3,29.6Z"/><path class="cls-3" d="M13.25,5.1A.36.36,0,0,1,13,5a.31.31,0,0,1-.1-.24A.37.37,0,0,1,13,4.5a.36.36,0,0,1,.6.25.33.33,0,0,1-.11.25A.35.35,0,0,1,13.25,5.1Z"/><path class="cls-3" d="M70.25,34.6a.34.34,0,0,1-.35-.35A.33.33,0,0,1,70,34a.37.37,0,0,1,.49,0,.36.36,0,0,1,.1.25.34.34,0,0,1-.35.35Z"/><path class="cls-3" d="M71.25,41.35a.35.35,0,0,1-.25-.6.37.37,0,0,1,.5,0,.35.35,0,0,1-.25.6Z"/><path class="cls-3" d="M1,51.85a.39.39,0,0,1-.25-.1.39.39,0,0,1-.1-.25.33.33,0,0,1,.11-.25.37.37,0,0,1,.49,0,.36.36,0,0,1,.1.25.39.39,0,0,1-.1.25A.39.39,0,0,1,1,51.85Z"/><path class="cls-3" d="M72,23.6a.35.35,0,0,1-.25-.6.38.38,0,0,1,.5,0,.35.35,0,0,1-.25.6Z"/><path class="cls-3" d="M69,26.6a.35.35,0,0,1-.25-.6.37.37,0,0,1,.5,0,.39.39,0,0,1,.1.25.35.35,0,0,1-.1.25A.39.39,0,0,1,69,26.6Z"/><path class="cls-3" d="M68.5,60.35a.34.34,0,0,1-.35-.35.37.37,0,0,1,.1-.25.38.38,0,0,1,.5,0,.35.35,0,0,1-.25.6Z"/><path class="cls-3" d="M71.5,68.35a.35.35,0,0,1-.25-.6.37.37,0,0,1,.5,0,.39.39,0,0,1,.1.25.35.35,0,0,1-.1.25A.39.39,0,0,1,71.5,68.35Z"/><path class="cls-3" d="M.5,57.85a.39.39,0,0,1-.25-.1.36.36,0,0,1,0-.5.38.38,0,0,1,.5,0,.36.36,0,0,1,0,.5A.39.39,0,0,1,.5,57.85Z"/><path class="cls-3" d="M2.75,71.35a.39.39,0,0,1-.25-.1.36.36,0,0,1,0-.5.36.36,0,0,1,.6.25.39.39,0,0,1-.1.25A.39.39,0,0,1,2.75,71.35Z"/><path class="cls-3" d="M70.25,24.1a.34.34,0,0,1-.35-.35A.33.33,0,0,1,70,23.5a.37.37,0,0,1,.49,0,.36.36,0,0,1,.1.25.34.34,0,0,1-.35.35Z"/><path class="cls-3" d="M1.25,16.85a.39.39,0,0,1-.25-.1.36.36,0,0,1,0-.5.38.38,0,0,1,.5,0,.36.36,0,0,1,0,.5A.39.39,0,0,1,1.25,16.85Z"/><path class="cls-3" d="M18,13.15a.65.65,0,0,1-.65-.65.66.66,0,0,1,.19-.46.68.68,0,0,1,.92,0A.65.65,0,0,1,18,13.15Z"/><path class="cls-3" d="M29.25,11.15a.66.66,0,0,1-.46-.19.68.68,0,0,1-.19-.46.66.66,0,0,1,.19-.46.67.67,0,0,1,.92,0,.66.66,0,0,1,.19.46.65.65,0,0,1-.65.65Z"/><path class="cls-3" d="M29.25,3.65A.65.65,0,0,1,28.6,3a.64.64,0,0,1,.19-.46.68.68,0,0,1,.92,0,.65.65,0,0,1,0,.92A.68.68,0,0,1,29.25,3.65Z"/><path class="cls-3" d="M40.25,10.65A.65.65,0,0,1,39.6,10a.66.66,0,0,1,.19-.46.68.68,0,0,1,.92,0,.63.63,0,0,1,.19.46.68.68,0,0,1-.19.46A.66.66,0,0,1,40.25,10.65Z"/><path class="cls-3" d="M45,12.15a.61.61,0,0,1-.46-.2.64.64,0,0,1-.19-.45.66.66,0,0,1,.19-.46.68.68,0,0,1,.92,0,.63.63,0,0,1,.19.46.61.61,0,0,1-.2.46A.6.6,0,0,1,45,12.15Z"/><path class="cls-3" d="M47.25,23.15A.65.65,0,0,1,46.79,22a.68.68,0,0,1,.92,0,.65.65,0,0,1-.46,1.11Z"/><path class="cls-3" d="M54.75,7.15A.64.64,0,0,1,54.29,7a.65.65,0,0,1,0-.92.68.68,0,0,1,.92,0,.64.64,0,0,1,.19.46.66.66,0,0,1-.19.46A.64.64,0,0,1,54.75,7.15Z"/><path class="cls-3" d="M64,6.9a.65.65,0,0,1-.46-1.11.68.68,0,0,1,.92,0A.65.65,0,0,1,64,6.9Z"/><path class="cls-3" d="M65,2.9a.66.66,0,0,1-.46-.19.68.68,0,0,1-.19-.46.66.66,0,0,1,.19-.46.68.68,0,0,1,.92,0,.68.68,0,0,1,.19.46.63.63,0,0,1-.18.45A.67.67,0,0,1,65,2.9Z"/><path class="cls-3" d="M69.5,18.4A.65.65,0,0,1,69,17.29a.67.67,0,0,1,.92,0,.65.65,0,0,1-.46,1.11Z"/><path class="cls-3" d="M8,47.4a.64.64,0,0,1-.46-.19.68.68,0,0,1-.19-.46.66.66,0,0,1,.19-.46.68.68,0,0,1,.92,0,.66.66,0,0,1,.19.46.68.68,0,0,1-.19.46A.64.64,0,0,1,8,47.4Z"/><path class="cls-3" d="M5,57.15A.64.64,0,0,1,4.54,57a.65.65,0,0,1,0-.92.67.67,0,0,1,.92,0,.65.65,0,0,1,0,.92A.64.64,0,0,1,5,57.15Z"/><path class="cls-3" d="M2.25,67.4a.66.66,0,0,1-.46-.19.68.68,0,0,1-.19-.46.66.66,0,0,1,.19-.46.68.68,0,0,1,.92,0,.66.66,0,0,1,.19.46.68.68,0,0,1-.19.46A.66.66,0,0,1,2.25,67.4Z"/><path class="cls-3" d="M17.75,70.15a.66.66,0,0,1-.46-.19.68.68,0,0,1-.19-.46.66.66,0,0,1,.19-.46.68.68,0,0,1,.92,0,.66.66,0,0,1,.19.46.68.68,0,0,1-.19.46A.66.66,0,0,1,17.75,70.15Z"/><path class="cls-3" d="M19.25,62.65A.65.65,0,0,1,18.6,62a.64.64,0,0,1,.19-.46.67.67,0,0,1,.92,0,.66.66,0,0,1,.19.46.68.68,0,0,1-.19.46A.66.66,0,0,1,19.25,62.65Z"/><path class="cls-3" d="M21,45.65a.65.65,0,0,1-.65-.65.64.64,0,0,1,.19-.46.67.67,0,0,1,.92,0,.66.66,0,0,1,.19.46.68.68,0,0,1-.19.46A.64.64,0,0,1,21,45.65Z"/><path class="cls-3" d="M28.5,51.4A.65.65,0,0,1,28,50.29a.67.67,0,0,1,.92,0,.66.66,0,0,1,.19.46.68.68,0,0,1-.19.46A.64.64,0,0,1,28.5,51.4Z"/><path class="cls-3" d="M34,60.65a.65.65,0,0,1-.65-.65.64.64,0,0,1,.19-.46.68.68,0,0,1,.92,0,.63.63,0,0,1,.19.46.64.64,0,0,1-.19.46A.66.66,0,0,1,34,60.65Z"/><path class="cls-3" d="M34.25,67.15a.64.64,0,0,1-.46-.19.65.65,0,0,1,0-.92.67.67,0,0,1,.92,0,.65.65,0,0,1,0,.92A.66.66,0,0,1,34.25,67.15Z"/><path class="cls-3" d="M41.75,55.4a.65.65,0,0,1-.46-1.11.68.68,0,0,1,.92,0,.65.65,0,0,1-.46,1.11Z"/><path class="cls-3" d="M52.25,60.15A.65.65,0,0,1,51.79,59a.68.68,0,0,1,.92,0,.65.65,0,0,1-.46,1.11Z"/><path class="cls-3" d="M55,65.65a.66.66,0,0,1-.46-.19.68.68,0,0,1-.19-.46.64.64,0,0,1,.19-.46.68.68,0,0,1,.92,0,.64.64,0,0,1,.19.46.68.68,0,0,1-.19.46A.66.66,0,0,1,55,65.65Z"/><path class="cls-3" d="M25.25,24.9a.66.66,0,0,1-.46-.19.68.68,0,0,1-.19-.46.66.66,0,0,1,.19-.46.68.68,0,0,1,.92,0,.66.66,0,0,1,.19.46.68.68,0,0,1-.19.46A.66.66,0,0,1,25.25,24.9Z"/><path class="cls-3" d="M35.25,23.65a.64.64,0,0,1-.46-.19.65.65,0,0,1,0-.92.68.68,0,0,1,.92,0,.65.65,0,0,1-.46,1.11Z"/><path class="cls-3" d="M45,29.9a.65.65,0,0,1-.46-1.11.68.68,0,0,1,.92,0,.63.63,0,0,1,.19.46.61.61,0,0,1-.2.46A.62.62,0,0,1,45,29.9Z"/><path class="cls-3" d="M52,43.4a.65.65,0,0,1-.46-1.11.67.67,0,0,1,.92,0,.64.64,0,0,1,.19.46.65.65,0,0,1-.65.65Z"/><path class="cls-3" d="M67,52.15a.65.65,0,0,1-.65-.65.61.61,0,0,1,.2-.46.68.68,0,0,1,.91,0A.65.65,0,0,1,67,52.15Z"/><path class="cls-3" d="M47.25,48.15A.65.65,0,0,1,46.79,47a.68.68,0,0,1,.92,0,.65.65,0,0,1-.46,1.11Z"/><path class="cls-3" d="M37,44.9a.66.66,0,0,1-.46-.19.68.68,0,0,1-.19-.46.66.66,0,0,1,.19-.46.68.68,0,0,1,.92,0,.66.66,0,0,1,.19.46.68.68,0,0,1-.19.46A.66.66,0,0,1,37,44.9Z"/><path class="cls-3" d="M17,28.9a.65.65,0,0,1-.46-1.11.68.68,0,0,1,.92,0,.65.65,0,0,1,0,.92A.64.64,0,0,1,17,28.9Z"/><path class="cls-3" d="M11.25,37.15a.65.65,0,0,1-.65-.65.64.64,0,0,1,.19-.46.67.67,0,0,1,.92,0,.65.65,0,0,1-.46,1.11Z"/><path class="cls-3" d="M67.5,31.15A.66.66,0,0,1,67,31a.68.68,0,0,1-.19-.46A.66.66,0,0,1,67,30,.68.68,0,0,1,68,30a.64.64,0,0,1,.19.46.65.65,0,0,1-.65.65Z"/><path class="cls-3" d="M7.25,16.15a.61.61,0,0,1-.46-.2.62.62,0,0,1-.19-.45A.66.66,0,0,1,6.79,15a.67.67,0,0,1,.92,0,.65.65,0,0,1,0,.92A.64.64,0,0,1,7.25,16.15Z"/><path class="cls-3" d="M8.5,5.65A.68.68,0,0,1,8,5.46.66.66,0,0,1,7.85,5,.64.64,0,0,1,8,4.54a.67.67,0,0,1,.92,0A.64.64,0,0,1,9.15,5a.65.65,0,0,1-.65.65Z"/><path class="cls-3" d="M3.5,2.9A.66.66,0,0,1,3,2.71a.68.68,0,0,1-.19-.46A.66.66,0,0,1,3,1.79a.68.68,0,0,1,.92,0,.66.66,0,0,1,.19.46A.68.68,0,0,1,4,2.71.66.66,0,0,1,3.5,2.9Z"/><path class="cls-3" d="M66.5,37.65A.65.65,0,0,1,66,36.54a.68.68,0,0,1,.92,0,.64.64,0,0,1,.19.46.66.66,0,0,1-.19.46A.64.64,0,0,1,66.5,37.65Z"/><path class="cls-3" d="M44,63.4a.66.66,0,0,1-.46-.19.68.68,0,0,1-.19-.46.66.66,0,0,1,.19-.46.67.67,0,0,1,.92,0,.66.66,0,0,1,.19.46.68.68,0,0,1-.19.46A.66.66,0,0,1,44,63.4Z"/><path class="cls-3" d="M25.75,70.4a.66.66,0,0,1-.46-.19.68.68,0,0,1-.19-.46.66.66,0,0,1,.19-.46.67.67,0,0,1,.92,0,.66.66,0,0,1,.19.46.68.68,0,0,1-.19.46A.66.66,0,0,1,25.75,70.4Z"/><path class="cls-3" d="M22,42.15a.66.66,0,0,1-.46-.19.65.65,0,0,1,0-.92.68.68,0,0,1,.92,0A.65.65,0,0,1,22,42.15Z"/><path class="cls-3" d="M24,29.4a.66.66,0,0,1-.46-.19.68.68,0,0,1-.19-.46.66.66,0,0,1,.19-.46.67.67,0,0,1,.92,0,.64.64,0,0,1,.19.46.65.65,0,0,1-.65.65Z"/><path class="cls-3" d="M41.5,34.9A.65.65,0,0,1,41,33.79a.68.68,0,0,1,.92,0,.66.66,0,0,1,.19.46.68.68,0,0,1-.19.46A.66.66,0,0,1,41.5,34.9Z"/><path class="cls-3" d="M67.5,44.15A.66.66,0,0,1,67,44a.68.68,0,0,1-.19-.46A.66.66,0,0,1,67,43,.68.68,0,0,1,68,43a.64.64,0,0,1,.19.46.65.65,0,0,1-.65.65Z"/><path class="cls-3" d="M53.25,15.4a.65.65,0,0,1-.46-1.11.68.68,0,0,1,.92,0,.66.66,0,0,1,.19.46.68.68,0,0,1-.19.46A.66.66,0,0,1,53.25,15.4Z"/><path class="cls-3" d="M34,16.4a.66.66,0,0,1-.46-.19.68.68,0,0,1-.19-.46.64.64,0,0,1,.19-.46.68.68,0,0,1,.92,0,.64.64,0,0,1,.19.46.65.65,0,0,1-.65.65Z"/><path class="cls-3" d="M12.75,19.65a.65.65,0,0,1-.46-1.11.67.67,0,0,1,.92,0,.65.65,0,0,1-.46,1.11Z"/><path class="cls-3" d="M49.5,4.9A.65.65,0,0,1,49,3.79a.68.68,0,0,1,.92,0A.65.65,0,0,1,49.5,4.9Z"/><path class="cls-3" d="M59,21.15A.65.65,0,0,1,58.54,20a.68.68,0,0,1,.92,0,.64.64,0,0,1,.19.46.65.65,0,0,1-.65.65Z"/><path class="cls-3" d="M67.5,57.65a.66.66,0,0,1-.46-.19.68.68,0,0,1-.19-.46.66.66,0,0,1,.19-.46.68.68,0,0,1,.92,0,.64.64,0,0,1,.19.46.65.65,0,0,1-.65.65Z"/><path class="cls-3" d="M5.25,70.15A.64.64,0,0,1,4.79,70a.65.65,0,0,1,0-.92.67.67,0,0,1,.92,0,.65.65,0,0,1,0,.92A.64.64,0,0,1,5.25,70.15Z"/><path class="cls-3" d="M2.75,13.65a.61.61,0,0,1-.46-.2A.62.62,0,0,1,2.1,13a.66.66,0,0,1,.19-.46.67.67,0,0,1,.92,0,.65.65,0,0,1,0,.92A.64.64,0,0,1,2.75,13.65Z"/><path class="cls-3" d="M16.5,3.65A.65.65,0,0,1,16,2.54a.68.68,0,0,1,.92,0,.65.65,0,0,1-.46,1.11Z"/><path class="cls-3" d="M40.5,4.9A.65.65,0,0,1,40,3.79a.68.68,0,0,1,.92,0,.64.64,0,0,1,.19.46.65.65,0,0,1-.65.65Z"/><path class="cls-3" d="M2.75,32.4a.64.64,0,0,1-.46-.19.65.65,0,0,1,0-.92.68.68,0,0,1,.92,0,.65.65,0,0,1-.46,1.11Z"/><path class="cls-3" d="M7.5,25.4A.64.64,0,0,1,7,25.21a.65.65,0,0,1,0-.92.68.68,0,0,1,.92,0,.64.64,0,0,1,.19.46.66.66,0,0,1-.19.46A.64.64,0,0,1,7.5,25.4Z"/><path class="cls-3" d="M4,47.15A.66.66,0,0,1,3.54,47a.68.68,0,0,1-.19-.46A.66.66,0,0,1,3.54,46a.67.67,0,0,1,.92,0,.66.66,0,0,1,.19.46.68.68,0,0,1-.19.46A.64.64,0,0,1,4,47.15Z"/><path class="cls-3" d="M11,50.9a.66.66,0,0,1-.46-.19.68.68,0,0,1-.19-.46.64.64,0,0,1,.19-.46.68.68,0,0,1,.92,0,.66.66,0,0,1,.19.46.68.68,0,0,1-.19.46A.66.66,0,0,1,11,50.9Z"/><path class="cls-3" d="M10,60.15A.64.64,0,0,1,9.54,60a.65.65,0,0,1,0-.92.68.68,0,0,1,.92,0,.65.65,0,0,1,0,.92A.64.64,0,0,1,10,60.15Z"/><path class="cls-3" d="M13.5,66.15A.66.66,0,0,1,13,66a.68.68,0,0,1-.19-.46A.64.64,0,0,1,13,65,.67.67,0,0,1,14,65a.66.66,0,0,1,.19.46A.68.68,0,0,1,14,66,.66.66,0,0,1,13.5,66.15Z"/><path class="cls-3" d="M22,53.65a.66.66,0,0,1-.46-.19.64.64,0,0,1-.19-.46.6.6,0,0,1,.2-.46.65.65,0,0,1,1.1.46.68.68,0,0,1-.19.46A.66.66,0,0,1,22,53.65Z"/><path class="cls-3" d="M31.25,37.9a.66.66,0,0,1-.46-.19.68.68,0,0,1-.19-.46.66.66,0,0,1,.19-.46.68.68,0,0,1,.92,0,.66.66,0,0,1,.19.46.68.68,0,0,1-.19.46A.66.66,0,0,1,31.25,37.9Z"/><path class="cls-3" d="M26,34.4a.65.65,0,0,1-.46-1.11.67.67,0,0,1,.92,0A.65.65,0,0,1,26,34.4Z"/><path class="cls-3" d="M37.25,28.9a.66.66,0,0,1-.46-.19.68.68,0,0,1-.19-.46.66.66,0,0,1,.19-.46.68.68,0,0,1,.92,0,.66.66,0,0,1,.19.46.68.68,0,0,1-.19.46A.66.66,0,0,1,37.25,28.9Z"/><path class="cls-3" d="M61.75,16.9a.66.66,0,0,1-.46-.19.68.68,0,0,1-.19-.46.66.66,0,0,1,.19-.46.68.68,0,0,1,.92,0,.64.64,0,0,1,.19.46.65.65,0,0,1-.65.65Z"/><path class="cls-3" d="M61.25,27.4a.64.64,0,0,1-.46-.19.68.68,0,0,1-.19-.46.66.66,0,0,1,.19-.46.68.68,0,0,1,.92,0,.65.65,0,0,1,0,.92A.64.64,0,0,1,61.25,27.4Z"/><path class="cls-3" d="M58.75,57.4a.66.66,0,0,1-.46-.19.68.68,0,0,1-.19-.46.66.66,0,0,1,.19-.46.68.68,0,0,1,.92,0,.66.66,0,0,1,.19.46.68.68,0,0,1-.19.46A.66.66,0,0,1,58.75,57.4Z"/><path class="cls-3" d="M59.25,44.65a.64.64,0,0,1-.46-.19.65.65,0,0,1,0-.92.68.68,0,0,1,.92,0,.65.65,0,0,1,0,.92A.64.64,0,0,1,59.25,44.65Z"/><path class="cls-3" d="M55.75,35.9a.66.66,0,0,1-.46-.19.68.68,0,0,1-.19-.46.66.66,0,0,1,.19-.46.68.68,0,0,1,.92,0,.66.66,0,0,1,.19.46.68.68,0,0,1-.19.46A.66.66,0,0,1,55.75,35.9Z"/><path class="cls-3" d="M69.25,70.9a.68.68,0,0,1-.46-.19.65.65,0,0,1,0-.92.69.69,0,0,1,.92,0,.65.65,0,0,1-.46,1.11Z"/><path class="cls-3" d="M60.75,66.15A.65.65,0,0,1,60.29,65a.67.67,0,0,1,.92,0,.64.64,0,0,1,.19.46.65.65,0,0,1-.65.65Z"/><path class="cls-3" d="M44.5,71.65A.65.65,0,0,1,44,70.54a.68.68,0,0,1,.92,0,.65.65,0,0,1-.46,1.11Z"/><path class="cls-3" d="M24.5,1.4a.65.65,0,0,1-.65-.65A.64.64,0,0,1,24,.29a.67.67,0,0,1,.92,0,.66.66,0,0,1,.19.46.68.68,0,0,1-.19.46A.64.64,0,0,1,24.5,1.4Z"/><path class="cls-3" d="M0,23.6a.39.39,0,0,1-.25-.1.36.36,0,0,1,0-.5.38.38,0,0,1,.5,0,.39.39,0,0,1,.1.25.39.39,0,0,1-.1.25A.39.39,0,0,1,0,23.6Z"/></pattern><pattern id="Mezzotint_Irregular" data-name="Mezzotint Irregular" width="72" height="72" patternUnits="userSpaceOnUse" viewBox="0 0 72 72"><rect class="cls-1" width="72" height="72"/><path class="cls-2" d="M68.25,75.5c2.25-.5,7,0,6,1.75s4,7,4.5,5.5-2-4.5.75-4.75,5.75,3,7.5,3.25,5.5-1.5,3.25-3-2.75-4.5-5.5-4.25-7-.25-6-3"/><path class="cls-2" d="M69.25,73c1.75.5,5.5.25,6,1.75S78,77.5,78,76.25s-1.75-2.75-1.75-2.75-4-3.5-2-4"/><path class="cls-2" d="M71,80.25A21.39,21.39,0,0,0,76.5,84c2,1,5,2,5.25.75s-2.75-3.25-1-3.25,3.25,2,6.5,1.75,9.25-4,7.25-4.75S90.75,75,89,74a6.72,6.72,0,0,0-4-1c-1.25,0-4-1.25-2-2"/><path class="cls-2" d="M-3.75,75.5c2.25-.5,7,0,6,1.75s4,7,4.5,5.5-2-4.5.75-4.75,5.75,3,7.5,3.25,5.5-1.5,3.25-3-2.75-4.5-5.5-4.25-7-.25-6-3"/><path class="cls-2" d="M23.75,71C25,71.5,28,74,27,75.75s-.5,3.25,1,3.5,6.25-2,5.75-3.25-1.75-3.25,0-4.5"/><path class="cls-2" d="M45.75,68.75c1.75,1,1.75,2,.5,3.25s-6.5,1.25-5.75,2.5,5,4,7.75,4,3-3.5,4.75-4"/><path class="cls-2" d="M54,73.25c.75-.5.75-1,.5-3"/><path class="cls-2" d="M56.25,66.25c0,1.5-.38,5.6-.38,6.87a2.73,2.73,0,0,0,.5,1.88"/><path class="cls-2" d="M-2.75,73c1.75.5,5.5.25,6,1.75S6,77.5,6,76.25,4.25,73.5,4.25,73.5s-4-3.5-2-4"/><path class="cls-2" d="M26,70.25c1.75.5,3.75,1,3.5,2.75s.25,4,.75,2.75,0-4,1.5-5"/><path class="cls-2" d="M48.75,65.5c1.25,2.25,1.5,6.25-.25,7.5s-3,3-1.5,2.75,4-.75,4.75-3S54,64,52.5,63.25"/><path class="cls-2" d="M58,65.5c-1,1.5-1,4.5.25,5.75S60.75,72,61,73.5s1.5,3.25,2.5,3.25,2.5-2,3.25-2.75a3.9,3.9,0,0,1,2.5-1c1.75.5,5.5.25,6,1.75"/><path class="cls-2" d="M-1,80.25A21.39,21.39,0,0,0,4.5,84c2,1,5,2,5.25.75S7,81.5,8.75,81.5s3.25,2,6.5,1.75,9.25-4,7.25-4.75S18.75,75,17,74a6.72,6.72,0,0,0-4-1c-1.25,0-4-1.25-2-2"/><path class="cls-2" d="M22.25,71.5c1,2,2.25,3.25,2.5,5s-.5,4.75,2,4.75a12.93,12.93,0,0,0,2-.16"/><path class="cls-2" d="M30.81,80.59a8.51,8.51,0,0,0,3.69-2.34c2-2.25.25-2.75.5-4s6-4,7-3.25-1.25,0-2.25,1.75-4.25,6.25,1,6.5S47,80.5,47.25,81.5s5,.75,5-.5,1.5-6,2-4.75a10.35,10.35,0,0,0,5,5"/><path class="cls-2" d="M61.25,70.75c1.25,1.25,1.5,3.75,2.75,3S66.75,71.5,67.5,71"/><path class="cls-2" d="M-14,65.5c-1,1.5-1,4.5.25,5.75s2.5.75,2.75,2.25,1.5,3.25,2.5,3.25,2.5-2,3.25-2.75a3.9,3.9,0,0,1,2.5-1c1.75.5,5.5.25,6,1.75"/><path class="cls-2" d="M66.75,68.75c3.86-2.44,6-7,10.5-8.5-.15,1-.1,2.3.62,2.85,1.17.9,2.41.62,3.88.15,1-3.21,3.09-7.29,7-6.4,1.39.32,1.32,2,2.14,2.77s2.23,1.68,3.27,1a22.22,22.22,0,0,1,3.63-1.79c.73-.34.2-1.31,1-1.57,1.88-.64,2.18,1.36,3.51,2a15.77,15.77,0,0,0,.51,5.5c.7,2.33,3.38,1.62,5,.5-.31-.26.62-1.75.5-3.37.51-3.66-1.72-6.92,2.1-8.37s7.87-.39,11.87-1a9.33,9.33,0,0,0,3.44-1c1.35-.81,2.55-1.91,4.09-2.34.2.78,1.38.2,1.46,1,.22,2.18,1.65,3.67,2.75,5.36A3.27,3.27,0,0,0,135.14,57c.87.41.74,2.1,1.11,3.26"/><path class="cls-2" d="M69.37,62.38a27.06,27.06,0,0,0,4.5-2.26c.09-.85.83-1.38,1-2.24,0-.2.38-.25.4-.29a2.9,2.9,0,0,1,3.82-1.71c.38.16.18.87.75.74,0,.26.09.61,0,.7a3.21,3.21,0,0,0-1.07,3.52,1.28,1.28,0,0,0,2.11.78,7.53,7.53,0,0,1,3.34-6.88c1.2-.87,2.72-.7,4.16-.62-.07.56.37.1.5.26"/><path class="cls-2" d="M69.75,58.75c1.75-.25,3.75-2.5,5.25-4s3-2.5,4.5-2.25,1,3.25,3.25.25S86.5,50.75,88,51s5,2,6.25.5-2-6,.25-6.25,3.25,3.25,5.25,4.5,3,2.75,4.25.75,3.25-3.75,5.5-3a12.19,12.19,0,0,0,5,.75"/><path class="cls-2" d="M89.26,41.88c-1,.06-1.91.12-2.76.12-3.5,0-4,2.5-1.5,3s4.5,2.5,6.5,4S90,50,88,49s-3,0-5.5,2-1.5-.5-3-1-3,.5-4.5,2-3.5.5-7.5-.5"/><path class="cls-2" d="M68.75,48.25C70.25,49,72,50.5,74,49.5s3.25-2.5,4.5-2,2.5,2.25,4,1.25,3.25-.75,1.5-2.5-5.25-3-4-4S83.75,39,86.5,39s15-2.25,14.5.25-1.75,8.25,0,7.25,3.25-2.75,4.75-2.75S108.5,43.5,109,41s3-3.75,4-2.75,2.5,2.25,2.25.5.5-4.5,4-4.25l1.74.13"/><path class="cls-2" d="M69.25,69.25c1-1.25,2.75-3,4.5-4.75s2.75-1.25,3,.25S77.5,67.25,79,67s5.5-3,6-5.25S86.75,58,88,59s2,4,4.25,4,7.5-4.75,7.75-3-.5,4,.25,6.5,2.5,2.5,5,1.5,4.5-2,4.75-3.5"/><path class="cls-2" d="M68.25,3.5c2.25-.5,7,0,6,1.75s4,7,4.5,5.5-2-4.5.75-4.75S85.25,9,87,9.25s5.5-1.5,3.25-3S87.5,1.75,84.75,2s-7-.25-6-3"/><path class="cls-2" d="M70.5,44.75c1.75,1,2,2,4,1.25S77,45,77,45c2,1,3.5,1.5,3.25.5-.86-3.43-5.77-3-5-4.25C76.5,39.25,80.5,39,82,37s-.5-3.75,1.75-4.75,5.5,1,6.25,2.25,4.5,2.25,7.5,1.5,7.25-2,6.75.5-1.25,5.75.25,4.5,5.25-8.5,7.5-8.25,3.25,0,6.25-.25,9.5.5,9.25-2-4.75-8.25-1-8.25a10.78,10.78,0,0,1,5.24,1.52"/><path class="cls-2" d="M69.25,1c1.75.5,5.5.25,6,1.75S78,5.5,78,4.25,76.25,1.5,76.25,1.5s-4-3.5-2-4"/><path class="cls-2" d="M69.5,36c1.25.5,3.25,2.25,4,1.25s-8-3-.5-4.75,6.25-1,7.25-3.5-6.5-3.25-4.5-4.5,9.33-3,11.75-1.75c3,1.5,1.5,3.75,1.75,4.5s-1,4.75,2.5,6,5,2.5,8,.75,7-3.25,7-2-.25,2,2.5.25,7.25-3.25,9.75-3,5-.5,4-2.25-3.75-2.75-5-4.75.75-3.25,3.25-3.5,12,.75,13.75,2.25,2.25,5.5,2.25,8-1,3.25,1.75,5.25"/><path class="cls-2" d="M69.75,30A8.32,8.32,0,0,0,75,29.5c1-.5-2.5-3-4.75-3.75"/><path class="cls-2" d="M70.25,20.75c3.75-.5,7.25-1.5,9.75-1s7.75-.5,9.75,3"/><path class="cls-2" d="M70.5,16.75c3.5.5,10.75,2,12.5,2,.55,0,1.78,0,3.25.06"/><path class="cls-2" d="M71,8.25A21.39,21.39,0,0,0,76.5,12c2,1,5,2,5.25.75S79,9.5,80.75,9.5s3.25,2,6.5,1.75,9.25-4,7.25-4.75S90.75,3,89,2a6.72,6.72,0,0,0-4-1c-1.25,0-4-1.25-2-2"/><path class="cls-2" d="M70.5,14.25c1.75.5,10.25,2.75,14.25,2.5s10.75-.5,11.75.25.25,2,.5,3.25,1,2.25,2.25,1,3.75-2,5-1.5,3.5,1.25,3.25,0-2.75-3.25-1.5-5.5,7-6.5,6.5-4.25-1.25,5.25.5,4.5,5-2,8-1.5"/><path class="cls-2" d="M70.75,11.5c3,1.5,9.5,4,16,3.75S93,13.5,91.5,13.5s.25-2.5,2.25-2.5,4.5,1.5,4.75,3.25,1,3,2.25,2.75,1-1,2.75-4,2.5-3,4-4.75,1.5,0,2.25.25S116,7.75,116,9s-3.75,3-2,3,9.75-1.5,11.5-.75"/><path class="cls-2" d="M-5.25,68.75c3.86-2.44,6-7,10.5-8.5-.15,1-.1,2.3.62,2.85,1.17.9,2.41.62,3.88.15,1-3.21,3.09-7.29,7-6.4,1.39.32,1.32,2,2.14,2.77s2.23,1.68,3.27,1a22.22,22.22,0,0,1,3.63-1.79c.73-.34.2-1.31,1-1.57,1.88-.64,2.18,1.36,3.51,2a15.77,15.77,0,0,0,.51,5.5c.7,2.33,3.38,1.62,5,.5-.31-.26.63-1.75.5-3.37.51-3.66-1.72-6.92,2.1-8.37s7.87-.39,11.87-1a9.33,9.33,0,0,0,3.44-1c1.35-.81,2.55-1.91,4.09-2.34.2.78,1.38.2,1.46,1,.22,2.18,1.65,3.67,2.75,5.36A3.27,3.27,0,0,0,63.14,57c.87.41.74,2.1,1.11,3.26"/><path class="cls-2" d="M77.25,60.25c-4.47,1.48-6.64,6.06-10.5,8.5a4.49,4.49,0,0,1-3.93.76c-1.24-.34-.4-2.08-.55-3.26-.18-1.47,1.57-.88,2.17-1.88A3.11,3.11,0,0,0,65,61.62"/><path class="cls-2" d="M-2.62,62.38a27.85,27.85,0,0,0,4.5-2.26c.08-.85.82-1.38,1-2.24.05-.2.38-.25.4-.29a2.9,2.9,0,0,1,3.82-1.71c.38.16.18.87.76.74,0,.26.08.61,0,.7a3.21,3.21,0,0,0-1.07,3.52,1.29,1.29,0,0,0,2.12.78,7.5,7.5,0,0,1,3.33-6.88c1.2-.87,2.72-.7,4.17-.62-.08.56.36.1.5.26"/><path class="cls-2" d="M69.37,62.38a27.06,27.06,0,0,0,4.5-2.26"/><path class="cls-2" d="M68.37,63.88c-.84.45-1.07,1.44-1.59,2.18-.11.16-.45.18-.41.56-.53-.12-1,.42-1.49.24a.44.44,0,0,1-.21-.69c.36-.32.26-.89.48-.94.73-.19.27-1.15,1-1.11a9,9,0,0,0,.12-4.46c-.5-1.88-1.63-3.49-2.37-5.28"/><path class="cls-2" d="M63,53c-1.75-2.25-3-3.5-3.25-4.75S59.25,46,58,46s-2.25,1.5-4.25,2.5-9.25,2.25-11.25,2-6-1-7-.25-1.75,4.25-1.75,6.25.25,4.75,0,5.75-1.75,2.75-2-.5-.5-4.75-2.25-6.5-4.75-2.75-5-1.5.75,2.25.25,2.75a4.61,4.61,0,0,1-3.25,1c-1-.25-1.5-1-2.25-1.5"/><path class="cls-2" d="M-2.25,58.75c1.75-.25,3.75-2.5,5.25-4s3-2.5,4.5-2.25,1,3.25,3.25.25S14.5,50.75,16,51s5,2,6.25.5-2-6,.25-6.25,3.25,3.25,5.25,4.5,3,2.75,4.25.75,3.25-3.75,5.5-3a12.19,12.19,0,0,0,5,.75"/><path class="cls-2" d="M45.75,48c1.5-.25,6.25-1,7.5-2.25s-1.75-5-.25-5.5,5.5.25,7,1.5,2.75,5,3.25,7.25S67,53.75,67.5,55.5s0,4.5.5,5,1-1.5,1.75-1.75c1.68-.56,3.75-2.5,5.25-4"/><path class="cls-2" d="M75,52c-1.5,1.5-3.5.5-7.5-.5,0,0-2.25-1-2.5-6.5s-3.75-6.75-6.25-7.5S46,35.5,45.25,37s3.75,3.5,4.5,5-.25,3.75-2,3.5S46,42.75,44.5,42s-5.5-1-5.75,1.25S34.5,45.5,34.5,45.5c-2.5-.5-3,4-5,4S27,45,25,43c-1-1-2.75-1.25-4.69-1.25"/><path class="cls-2" d="M17.26,41.88c-1,.06-1.91.12-2.76.12-3.5,0-4,2.5-1.5,3s4.5,2.5,6.5,4S18,50,16,49s-3,0-5.5,2-1.5-.5-3-1-3,.5-4.5,2-3.5.5-7.5-.5"/><path class="cls-2" d="M-3.25,48.25C-1.75,49,0,50.5,2,49.5s3.25-2.5,4.5-2,2.5,2.25,4,1.25,3.25-.75,1.5-2.5-5.25-3-4-4S11.75,39,14.5,39s15-2.25,14.5.25-1.75,8.25,0,7.25,3.25-2.75,4.75-2.75S36.5,43.5,37,41s3-3.75,4-2.75,2.5,2.25,2.25.5.5-4.5,4-4.25l1.74.13"/><path class="cls-2" d="M51,34.81c4.19.41,9.73,1.15,11.76,2.44,2.75,1.75,4.5,6,4.75,8.5"/><path class="cls-2" d="M68.75,48.25C70.25,49,72,50.5,74,49.5"/><path class="cls-2" d="M12.75,74c-2.75.25-7-.25-6-3s7.5-4.5,8.25-6,2.75-1.75,3.75.25,3.75,5.25,5,5.75S28,74,27,75.75"/><path class="cls-2" d="M33.75,76c-.5-1.25-1.75-3.25,0-4.5s10.25-3.75,12-2.75,1.75,2,.5,3.25-6.5,1.25-5.75,2.5"/><path class="cls-2" d="M-2.75,69.25c1-1.25,2.75-3,4.5-4.75s2.75-1.25,3,.25S5.5,67.25,7,67s5.5-3,6-5.25S14.75,58,16,59s2,4,4.25,4,7.5-4.75,7.75-3-.5,4,.25,6.5,2.5,2.5,5,1.5,4.5-2,4.75-3.5"/><path class="cls-2" d="M69.25,69.25c1-1.25,2.75-3,4.5-4.75"/><path class="cls-2" d="M4.25,73.5s-4-3.5-2-4,4,0,6-1.25,5.25-3.25,6-4.75S16,61,16.75,62a7.1,7.1,0,0,0,3.75,2.5c1.75.5,3-1,3.75.75s0,4.5,1.75,5,3.75,1,3.5,2.75"/><path class="cls-2" d="M30.25,75.75c.5-1.25,0-4,1.5-5s6.25-2.75,7-4,3.93-1.88,6-2"/><path class="cls-2" d="M46.5,64.75c.23.18,1.94.19,2.25.75,1.25,2.25,1.5,6.25-.25,7.5"/><path class="cls-2" d="M51.75,72.75c.75-2.25,2.25-8.75.75-9.5s-4.75-1.5-2.75-3.5S55.5,56,56.5,56.5,61,60,60.25,61.75A18.65,18.65,0,0,1,58,65.5c-1,1.5-1,4.5.25,5.75S60.75,72,61,73.5"/><path class="cls-2" d="M38.25,62.75c0-1.25-.5-2.5.25-4.5s2.75-3,3-1.5-1.5,4.75,0,5,2.5.5,3.25-1-1.25-3.25,0-4.25S51,53.75,52.5,54.25s2.75-.25,3.75-.5"/><path class="cls-2" d="M58,53.75c1-.25,2.25,1.5,2.5,3S62.75,59.5,63,60.5s-2.25,5-2.75,6.25a3.64,3.64,0,0,0,1,4c1.25,1.25,1.5,3.75,2.75,3S66.75,71.5,67.5,71"/><path class="cls-2" d="M54,73.25c.75-.5.75-1,.5-3s.75-6.75,0-7.75-1.5-3,0-2.5c.82.27,2.51-.09,2.75,1.38.19,1.19-1,4.19-1,4.87,0,1.5-.38,5.6-.38,6.87"/><path class="cls-2" d="M-3.75,3.5c2.25-.5,7,0,6,1.75s4,7,4.5,5.5-2-4.5.75-4.75S13.25,9,15,9.25s5.5-1.5,3.25-3S15.5,1.75,12.75,2s-7-.25-6-3"/><path class="cls-2" d="M23.75-1C25-.5,28,2,27,3.75S26.5,7,28,7.25s6.25-2,5.75-3.25S32,.75,33.75-.5"/><path class="cls-2" d="M45.75-3.25c1.75,1,1.75,2,.5,3.25s-6.5,1.25-5.75,2.5,5,4,7.75,4,3-3.5,4.75-4"/><path class="cls-2" d="M54,1.25c.75-.5.75-1,.5-3"/><path class="cls-2" d="M56.25-5.75c0,1.5-.38,5.6-.38,6.87A2.73,2.73,0,0,0,56.37,3"/><path class="cls-2" d="M-1.5,44.75c1.75,1,2,2,4,1.25S5,45,5,45c2,1,3.5,1.5,3.25.5-.86-3.43-5.77-3-5-4.25C4.5,39.25,8.5,39,10,37s-.5-3.75,1.75-4.75,5.5,1,6.25,2.25,4.5,2.25,7.5,1.5,7.25-2,6.75.5S31,42.25,32.5,41s5.25-8.5,7.5-8.25,3.25,0,6.25-.25,9.5.5,9.25-2-4.75-8.25-1-8.25a10.78,10.78,0,0,1,5.24,1.52"/><path class="cls-2" d="M62.41,26.05A5.35,5.35,0,0,1,63.5,28.5c.5,3.5.25,5.75,2.25,7"/><path class="cls-2" d="M70.5,44.75c1.75,1,2,2,4,1.25"/><path class="cls-2" d="M67,36.25a7.58,7.58,0,0,1,2,4c0,1-.5,2.25.25,3.25"/><path class="cls-2" d="M-2.75,1c1.75.5,5.5.25,6,1.75S6,5.5,6,4.25,4.25,1.5,4.25,1.5s-4-3.5-2-4"/><path class="cls-2" d="M26-1.75c1.75.5,3.75,1,3.5,2.75s.25,4,.75,2.75,0-4,1.5-5"/><path class="cls-2" d="M48.75-6.5C50-4.25,50.25-.25,48.5,1s-3,3-1.5,2.75,4-.75,4.75-3S54-8,52.5-8.75"/><path class="cls-2" d="M58-6.5C57-5,57-2,58.25-.75S60.75,0,61,1.5s1.5,3.25,2.5,3.25S66,2.75,66.75,2a3.9,3.9,0,0,1,2.5-1c1.75.5,5.5.25,6,1.75"/><path class="cls-2" d="M-2.5,36c1.25.5,3.25,2.25,4,1.25s-8-3-.5-4.75,6.25-1,7.25-3.5-6.5-3.25-4.5-4.5,9.33-3,11.75-1.75c3,1.5,1.5,3.75,1.75,4.5s-1,4.75,2.5,6,5,2.5,8,.75,7-3.25,7-2-.25,2,2.5.25S44.5,29,47,29.25s5-.5,4-2.25-3.75-2.75-5-4.75.75-3.25,3.25-3.5S61.25,19.5,63,21s2.25,5.5,2.25,8-1,3.25,1.75,5.25"/><path class="cls-2" d="M69.5,36c1.25.5,3.25,2.25,4,1.25s-8-3-.5-4.75"/><path class="cls-2" d="M-2.25,30A8.32,8.32,0,0,0,3,29.5c1-.5-2.5-3-4.75-3.75"/><path class="cls-2" d="M-1.75,20.75c3.75-.5,7.25-1.5,9.75-1s7.75-.5,9.75,3"/><path class="cls-2" d="M69.75,30A8.32,8.32,0,0,0,75,29.5c1-.5-2.5-3-4.75-3.75s-3.75-4.5,0-5,7.25-1.5,9.75-1"/><path class="cls-2" d="M68.5,29.75a4.54,4.54,0,0,1-2-4c0-1.75-2-7.5-5-7.75s-20.25-2-20.75.25,3.25,4.5,4,5.5.5,3.25-.75,3.5-4,1-3.75-.5-1-3.25-2.5-1.5c-.75.87-2.66,1.5-3.75,2.25"/><path class="cls-2" d="M32.25,28.75a11,11,0,0,1-6.75,3c-2,0-6.25-.5-6-2.75s.25-3.25-.25-4.25"/><path class="cls-2" d="M-1.5,16.75c3.5.5,10.75,2,12.5,2,.55,0,1.78,0,3.25.06"/><path class="cls-2" d="M18.24,19.11c2,.24,3.74.67,4.26,1.39,1.25,1.75-.25,4.75-.75,6.25s-1,2.75.5,2.75,6.75.25,6-1.25S25,26,25.75,24.5s7-2.5,8.25-2.25,3.75,1.25,4.75.25S38,21,38.5,19"/><path class="cls-2" d="M70.5,16.75c3.5.5,10.75,2,12.5,2"/><path class="cls-2" d="M39.5,17.5c2-1,3.25-2.25,7.75-2s17.5,1.25,18,2.25,2,1.75,2.5.5A2.44,2.44,0,0,1,69,16.75"/><path class="cls-2" d="M-1,8.25A21.39,21.39,0,0,0,4.5,12c2,1,5,2,5.25.75S7,9.5,8.75,9.5s3.25,2,6.5,1.75,9.25-4,7.25-4.75S18.75,3,17,2a6.72,6.72,0,0,0-4-1C11.75,1,9-.25,11-1"/><path class="cls-2" d="M22.25-.5c1,2,2.25,3.25,2.5,5s-.5,4.75,2,4.75a12.93,12.93,0,0,0,2-.16"/><path class="cls-2" d="M30.81,8.59A8.51,8.51,0,0,0,34.5,6.25c2-2.25.25-2.75.5-4s6-4,7-3.25S40.75-1,39.75.75s-4.25,6.25,1,6.5S47,8.5,47.25,9.5s5,.75,5-.5,1.5-6,2-4.75a10.35,10.35,0,0,0,5,5"/><path class="cls-2" d="M71,8.25A21.39,21.39,0,0,0,76.5,12"/><path class="cls-2" d="M68.25,3.5c2.25-.5,7,0,6,1.75"/><path class="cls-2" d="M58,4c.75,1,3.25,2.25,4,3.25s2.25,2.5,3,.75-.25-3.5,1.5-4"/><path class="cls-2" d="M70.25,7.5C68.75,6,67,5.25,67,6.25S69.75,8,68.75,9.5s-5,2.5-6.5,1.75S60.5,10,60.5,10"/><path class="cls-2" d="M-1.5,14.25c1.75.5,10.25,2.75,14.25,2.5s10.75-.5,11.75.25.25,2,.5,3.25,1,2.25,2.25,1,3.75-2,5-1.5,3.5,1.25,3.25,0-2.75-3.25-1.5-5.5,7-6.5,6.5-4.25-1.25,5.25.5,4.5,5-2,8-1.5"/><path class="cls-2" d="M70.5,14.25c1.75.5,10.25,2.75,14.25,2.5"/><path class="cls-2" d="M68.75,14c-1.5-.5-3.61-.2-3.25,1,.75,2.5-3.25-.25-6-.75a51.29,51.29,0,0,0-7-.75"/><path class="cls-2" d="M-1.25,11.5c3,1.5,9.5,4,16,3.75S21,13.5,19.5,13.5s.25-2.5,2.25-2.5,4.5,1.5,4.75,3.25,1,3,2.25,2.75,1-1,2.75-4,2.5-3,4-4.75,1.5,0,2.25.25S44,7.75,44,9s-3.75,3-2,3,9.75-1.5,11.5-.75"/><path class="cls-2" d="M70.75,11.5c3,1.5,9.5,4,16,3.75"/><path class="cls-2" d="M70.25,11.25c-2-.87-4.25,2.25-7,1.75S58.5,12,57,11.75a15.43,15.43,0,0,0-2.25-.25"/><path class="cls-2" d="M13,73c-1.25,0-4-1.25-2-2,2.75-2,9.5-2.25,11.25.5,1,2,2.25,3.25,2.5,5"/><path class="cls-2" d="M35,74.25c.25-1.25,6-4,7-3.25s-1.25,0-2.25,1.75"/><path class="cls-2" d="M61.25-1.25C62.5,0,62.75,2.5,64,1.75S66.75-.5,67.5-1"/><path class="cls-2" d="M5.25,60.25c-4.47,1.48-6.64,6.06-10.5,8.5a4.49,4.49,0,0,1-3.93.76c-1.24-.34-.4-2.08-.55-3.26-.18-1.47,1.57-.88,2.17-1.88A3.11,3.11,0,0,0-7,61.62"/><path class="cls-2" d="M-2.62,62.38a27.85,27.85,0,0,0,4.5-2.26"/><path class="cls-2" d="M-26.25,48c1.5-.25,6.25-1,7.5-2.25s-1.75-5-.25-5.5,5.5.25,7,1.5,2.75,5,3.25,7.25S-5,53.75-4.5,55.5s0,4.5.5,5,1-1.5,1.75-1.75c1.68-.56,3.75-2.5,5.25-4"/><path class="cls-2" d="M3,52c-1.5,1.5-3.5.5-7.5-.5,0,0-2.25-1-2.5-6.5s-3.75-6.75-6.25-7.5-12.75-2-13.5-.5,3.75,3.5,4.5,5-.25,3.75-2,3.5S-26,42.75-27.5,42s-5.5-1-5.75,1.25S-37.5,45.5-37.5,45.5c-2.5-.5-3,4-5,4S-45,45-47,43c-1-1-2.75-1.25-4.69-1.25"/><path class="cls-2" d="M-3.25,48.25C-1.75,49,0,50.5,2,49.5"/><path class="cls-2" d="M-2.75,69.25c1-1.25,2.75-3,4.5-4.75"/><path class="cls-2" d="M-1.5,44.75c1.75,1,2,2,4,1.25"/><path class="cls-2" d="M-14-6.5C-15-5-15-2-13.75-.75S-11.25,0-11,1.5s1.5,3.25,2.5,3.25S-6,2.75-5.25,2a3.9,3.9,0,0,1,2.5-1c1.75.5,5.5.25,6,1.75"/><path class="cls-2" d="M-2.5,36c1.25.5,3.25,2.25,4,1.25s-8-3-.5-4.75"/><path class="cls-2" d="M-2.25,30A8.32,8.32,0,0,0,3,29.5c1-.5-2.5-3-4.75-3.75s-3.75-4.5,0-5,7.25-1.5,9.75-1"/><path class="cls-2" d="M-1.5,16.75c3.5.5,10.75,2,12.5,2"/><path class="cls-2" d="M-1,8.25A21.39,21.39,0,0,0,4.5,12"/><path class="cls-2" d="M-3.75,3.5c2.25-.5,7,0,6,1.75"/><path class="cls-2" d="M-1.5,14.25c1.75.5,10.25,2.75,14.25,2.5"/><path class="cls-2" d="M-1.25,11.5c3,1.5,9.5,4,16,3.75"/><path class="cls-2" d="M12.75,2c-2.75.25-7-.25-6-3S14.25-5.5,15-7s2.75-1.75,3.75.25S22.5-1.5,23.75-1,28,2,27,3.75"/><path class="cls-2" d="M33.75,4c-.5-1.25-1.75-3.25,0-4.5S44-4.25,45.75-3.25s1.75,2,.5,3.25-6.5,1.25-5.75,2.5"/><path class="cls-2" d="M4.25,1.5s-4-3.5-2-4,4,0,6-1.25S13.5-7,14.25-8.5,16-11,16.75-10A7.1,7.1,0,0,0,20.5-7.5c1.75.5,3-1,3.75.75s0,4.5,1.75,5,3.75,1,3.5,2.75"/><path class="cls-2" d="M30.25,3.75c.5-1.25,0-4,1.5-5s6.25-2.75,7-4,3.93-1.88,6-2"/><path class="cls-2" d="M46.5-7.25c.23.18,1.94.19,2.25.75C50-4.25,50.25-.25,48.5,1"/><path class="cls-2" d="M51.75.75C52.5-1.5,54-8,52.5-8.75s-4.75-1.5-2.75-3.5S55.5-16,56.5-15.5,61-12,60.25-10.25A18.65,18.65,0,0,1,58-6.5C57-5,57-2,58.25-.75S60.75,0,61,1.5"/><path class="cls-2" d="M58-18.25c1-.25,2.25,1.5,2.5,3S62.75-12.5,63-11.5s-2.25,5-2.75,6.25a3.64,3.64,0,0,0,1,4C62.5,0,62.75,2.5,64,1.75S66.75-.5,67.5-1"/><path class="cls-2" d="M54,1.25c.75-.5.75-1,.5-3s.75-6.75,0-7.75-1.5-3,0-2.5c.82.27,2.51-.09,2.75,1.38.19,1.19-1,4.19-1,4.87,0,1.5-.38,5.6-.38,6.87"/><path class="cls-2" d="M13,1C11.75,1,9-.25,11-1c2.75-2,9.5-2.25,11.25.5,1,2,2.25,3.25,2.5,5"/><path class="cls-2" d="M35,2.25c.25-1.25,6-4,7-3.25S40.75-1,39.75.75"/></pattern></defs><title>jazmin-name</title><g id="_Group_" data-name="&lt;Group&gt;"><g id="_Group_2" data-name="&lt;Group&gt;"><path class="cls-4" d="M176,158.84c10.63-44.81,78.41-61.17,106.85-57.67C235.79,209.89,165,233.84,176,158.84Z"/><path class="cls-5" d="M176,158.84c10.63-44.81,78.41-61.17,106.85-57.67C235.79,209.89,165,233.84,176,158.84Z"/><path d="M402.57,114.17a10.13,10.13,0,0,1,4.35-3.79,2,2,0,0,1,.48-.1,1.07,1.07,0,0,1,.29.07,4.62,4.62,0,0,1-.72,3.41,19.76,19.76,0,0,1-6.27,7,27.88,27.88,0,0,1-3.82,2.43,3.66,3.66,0,0,1,.28-.56c.89-1.3,1.84-2.56,2.68-3.89C400.79,117.21,401.56,115.61,402.57,114.17Z"/><path d="M376.31,160.77c7.47-4.2,4.72,4.75-2,13.18C361.52,188.29,342,192.3,341.44,192.3c2.21-.51,17.48-13.67,30.34-27.83A18.11,18.11,0,0,1,376.31,160.77Z"/><path d="M360.18,54.82c-2.4-.13-4.77-.62-7.15-1a6.3,6.3,0,0,1-1.24-.53c.65-.2,1-.36,1.43-.44,3-.62,5.2-2.49,7.37-4.42a23,23,0,0,0,6.06-9.11,10.74,10.74,0,0,1,2.64-4.44,11.17,11.17,0,0,1,3.75-2.4,4.65,4.65,0,0,1,4.21.9,9.19,9.19,0,0,1,1.45,1.34,4.92,4.92,0,0,1,1,4.68C378.87,42.71,374.14,54.82,360.18,54.82Z"/><path d="M378,102.19c-3.14,1.13-6.27,2.28-9.42,3.4-1.83.65-3.64,1.42-5.51,1.89l-.58-2.56c.64-.2,1.25-.55,1.9-.78,1.05-.38,2.13-.68,3.18-1.06,2.26-.83,4.46-1.8,6.76-2.49,3.43-1,6.28-3.16,9.46-4.66,1.78-.83,3.21-2.16,4.93-3.05,1-.53,1.8-1.48,2.78-2.09a36.46,36.46,0,0,0,5.77-5,28.71,28.71,0,0,0,2.64-2.65c1.39-1.74,2.7-3.55,4-5.38a30.25,30.25,0,0,0,3.45-6.47,38.08,38.08,0,0,0,3-12.17c.1-2.53.62-5.06.54-7.58a36.48,36.48,0,0,0-.15-5.41l2.68-.29c.19,1.73.31,3.51.37,5.33A81.09,81.09,0,0,1,413.07,62a52.62,52.62,0,0,1-1.94,8.09,23,23,0,0,1-1,2.27,58.18,58.18,0,0,1-4.42,8.37A37.16,37.16,0,0,1,400,87.7a48.87,48.87,0,0,1-4.36,3.91c-2.06,1.57-4.24,3-6.4,4.42a26.72,26.72,0,0,1-3.9,2.4c-1.06.47-2,1.11-3,1.63a17.28,17.28,0,0,0-3.64,1.84A2.14,2.14,0,0,1,378,102.19Z"/><path d="M351.79,53.3a6.3,6.3,0,0,0,1.24.53c2.38.37,4.75.86,7.15,1,14,0,18.69-12.11,19.5-15.41a4.92,4.92,0,0,0-1-4.68,9.19,9.19,0,0,0-1.45-1.34,4.65,4.65,0,0,0-4.21-.9,11.17,11.17,0,0,0-3.75,2.4,10.74,10.74,0,0,0-2.64,4.44,23,23,0,0,1-6.06,9.11c-2.17,1.93-4.4,3.8-7.37,4.42C352.82,52.94,352.44,53.1,351.79,53.3Zm-5.48,1.11c-2.7-.85-5.11-3.84-6.74-6.42l2.78-.59c.26.34.53.68.82,1A14,14,0,0,0,346.81,51a2.48,2.48,0,0,0,1.58.08,19.87,19.87,0,0,0,3.12-.81c5.81-.88,8.82-6.62,9.85-7.81.21-.25,2.71-5.13,3.72-7.31a9.23,9.23,0,0,1,2.68-3,28.62,28.62,0,0,1,2.85-2,3,3,0,0,1,.69-.27c2.56-.83,12.25.17,11.31,8.59a14.29,14.29,0,0,1-1.08,5.1c-.67,2-7.52,15-21.66,14.12-2.05-.24-4.09-.49-6.12-.87A25.57,25.57,0,0,1,346.31,54.41Z"/><path d="M339.62,38.62a13.74,13.74,0,0,0,2.73,8.78l-2.78.59a26.32,26.32,0,0,1-2.09-3.93c-.4-1-4.13-10.41,3.35-22.63C359.33-9.15,386.58,1.8,388.14,2.35c9.3,3.44,22.82,19.19,25.33,43.45l-2.68.29c-1.22-12.21-7.77-25.21-9.2-27.43-1-1.56-2-3.15-3.12-4.63a26,26,0,0,0-2.62-2.63c-1-1-2-2-3.07-2.92a14.31,14.31,0,0,0-1.59-1.19,23.14,23.14,0,0,0-11-3.75,42,42,0,0,0-9,0,22.58,22.58,0,0,0-4.35,1c-2.16.73-4.32,1.52-6.39,2.46C357.1,8.65,341.88,15.7,339.62,38.62Z"/><path d="M406.92,110.38a10.13,10.13,0,0,0-4.35,3.79c-1,1.44-1.78,3-2.73,4.53-.84,1.33-1.79,2.59-2.68,3.89a3.66,3.66,0,0,0-.28.56,27.88,27.88,0,0,0,3.82-2.43,19.76,19.76,0,0,0,6.27-7,4.62,4.62,0,0,0,.72-3.41,1.07,1.07,0,0,0-.29-.07A2,2,0,0,0,406.92,110.38ZM341.08,174.8c1.86.23,11.67.15,32.2-37.54L373,137c-1.51.59-3,1.2-4.38,1.81l-.76-2.63c.7-.3,1.38-.68,2.1-1a23.75,23.75,0,0,1,3.82-1.41,3.51,3.51,0,0,0,2.58-2.58c.47-1.2,4-9,2.86-12.64-1.47-3.55-9.17.32-13,3l-1.39-1.76c.5-.21,16.16-12.05,17.26.64,0,3.25-2.15,9.34-2.77,11a25.78,25.78,0,0,0,4.81-1.53,9.32,9.32,0,0,1,1.22-.62,9.13,9.13,0,0,0,3.7-2.33c1.11-1.17,2.38-2.19,3.48-3.36.85-.9,1.53-2,2.29-2.93.4-.52.85-1,1.22-1.56.64-.91,1.27-1.82,1.84-2.78.95-1.59,1.85-3.21,2.8-4.81a3.08,3.08,0,0,1,.64-.76c1-.86,2-1.71,3-2.54a4.27,4.27,0,0,1,5-.18,3.73,3.73,0,0,1,1.28,3.37,10.81,10.81,0,0,1-2,5.52,26.21,26.21,0,0,1-6.09,6.34,20.54,20.54,0,0,1-3.15,2.21c-2.45,1.21-4.64,2.85-7.09,4.05-1.15.57-2.34,1.07-3.52,1.58s-2.33,1-3.5,1.5c-.69.28-1.4.51-2.1.77-1.27.48-2.55,1-3.82,1.47-.15.06-.28.24-.42.25-1.4.08-1.88,1.13-2.41,2.19-1.47,2.93-3,5.85-4.53,8.73-.74,1.37-1.68,2.64-2.52,4-1.55,2.45-3.07,4.92-4.66,7.34-.78,1.18-1.72,2.25-2.53,3.4-.95,1.36-1.89,2.73-2.75,4.15-1.66,2.71-8.85,9.31-10.34,10.2a29.63,29.63,0,0,1-3.59,1.73,9.58,9.58,0,0,1-4.76.76Z"/><path d="M340.76,177.55a11.75,11.75,0,0,1-6.41-2.78c-1.68-1.42-11.08-10.87,13.24-27.35.42-.32.8-.68,1.22-1a27.92,27.92,0,0,1,3.87-2.85,30.72,30.72,0,0,0,3.41-2,21,21,0,0,1,2.47-1.33l1.05-.52c.36-.18.71-.34,1.07-.5l.22-.1c2.32-1,4.65-2,7-2.94l.76,2.63c-21.13,9.26-30.58,21.07-32.14,23.69-4.92,7.91,1.57,12,4.31,12.3l.27,0-.22,2.76Z"/><path d="M346,83.68c-6.54,6.45-21,8.78-22.93,9.09a9.81,9.81,0,0,1-1.08.08,1.69,1.69,0,0,1,0-.23c16.47-9,17.59-20.62,24.25-19.43,6.39.71,2.45,6.81,1.43,8.31C347.18,82.26,346.59,83,346,83.68Z"/><path d="M324,122.35c1.09.76,2,.41,3,.2a1.76,1.76,0,0,1,2.09.59.87.87,0,0,1,.22,1.11c-.63,1.2-1,2.5-1.62,3.73-.95,1.89-2.25,3.69-2.18,6-.13,3,2.36,2.3,3.08,2.05a12,12,0,0,0,4.6-3.31c4.15-3.57,10.15-16.86,12.48-20.77-4.35,1.43-9.36,6.23-9.55,7.42-.5.66-1,.85-1.57.59a2,2,0,0,1-1.2-1.88.73.73,0,0,1,.21-.42c1.81-3.68,10.87-9.1,13.05-8.63.83-1.69,4.3-6.09,4.78-6.9a3.39,3.39,0,0,1,.87-.86,1.24,1.24,0,0,1,1.77.07,1.14,1.14,0,0,1,.26,1.66c-.6,1-1.29,2-1.93,3.06-.21.35-.38.73-.67,1.31l1.67-.31c3-.58,5.87-1.39,8.81-2.06l.28-.07.58,2.56-.69.16c-2.1.44-4.08,1.28-6.24,1.56a43.84,43.84,0,0,0-5.74,1.53c-1.24,1.67-16.9,24.24-7.73,26.23C347,137.8,355.41,116.3,360,115a4.14,4.14,0,0,1,4.82.52,2.56,2.56,0,0,1,.56,2.44c-.12.52-.27,1-.48,1.81l1.39,1.76a11.69,11.69,0,0,0-1.92,1.6,33.06,33.06,0,0,0-2.91,8.91,34.67,34.67,0,0,1-1,4c-.19.62-.36,1-.66,1.12a1.44,1.44,0,0,1-.72.14c-.22,0-.49,0-.81-.05-1.09-1,3.24-14.43,3.42-15.5s1.93-5.92-1.51-3.72c-1.82,1.71-5.78,8.1-6.44,9.19-.9,1.49-1.7,3.05-2.61,4.53-2.38,4.35-6.25,10-11,7.16-1.87-1.28-2.52-3.21-2.85-5.31,0-.15,0-.3-.1-.71-.57.66-5.39,5.77-8.67,6.24a3.41,3.41,0,0,1-3.58-.83c-.74-.71-1.38-1.52-2.14-2.38a11.22,11.22,0,0,1-.94,1,14.16,14.16,0,0,1-5.45,3.32c-2.8.74-5.59,0-6.91-2.44a6.64,6.64,0,0,1-.52-3.28C308.89,127.42,320.24,120.79,324,122.35Zm-1.26,2.05c-4.83-.81-16.91,11.26-8.76,13.49a6.77,6.77,0,0,0,4.51-1.78,29.94,29.94,0,0,0,3.47-3.73,20.76,20.76,0,0,0,1.43-2.31,21.21,21.21,0,0,0,2-4.55Z"/><path d="M341.44,192.3c.52,0,20.08-4,32.84-18.35,6.75-8.43,9.5-17.38,2-13.18a18.11,18.11,0,0,0-4.53,3.7C358.92,178.63,343.65,191.79,341.44,192.3ZM296.24,168a41,41,0,0,1-.63-9.65,82,82,0,0,1,.86-9.13c.21-1.26.21-2.56.33-3.83.13-1.48.39-3,.41-4.44,0-2.11.5-4.21.1-6.33a5.7,5.7,0,0,0-.37-1.3c-.53-1.14-1.18-1.58-2-1.58l.49-2.3a5.56,5.56,0,0,1,3.82,3.28,10.38,10.38,0,0,1,.78,5.6c-.25,2.69-.34,5.4-.58,8.09-.28,3.14-.76,6.26-1,9.4-.17,2.65,0,5.31-.06,8a25.22,25.22,0,0,0,1.16,6.49,34.63,34.63,0,0,0,4.51,9.8,21.55,21.55,0,0,0,8.25,7.51c10.11,5.79,21.23,5,22.83,4.51,18.55-5,42.57-48.81,49.12-31.53.89,3.95-2.89,9-4,10.53-1.6,2.25-3.43,4.34-5.23,6.44a41.48,41.48,0,0,1-5.3,4.87c-2.15,1.78-11.59,9.35-28.35,12.24-.86.16-34.94,6.23-44.12-22A23.65,23.65,0,0,1,296.24,168Z"/><path d="M346.27,73.19C339.61,72,338.49,83.6,322,92.62a1.69,1.69,0,0,0,0,.23,9.81,9.81,0,0,0,1.08-.08c1.94-.31,16.39-2.64,22.93-9.09.55-.72,1.14-1.42,1.66-2.18C348.72,80,352.66,73.9,346.27,73.19ZM286.64,99.66c-48.64,121.92-124.51,133.61-115,60.79,10.22-41.65,61.84-63.2,111.11-63.57.88-.95,2.94-6.24,3.39-7.78.58-1.95,3.87-14,4.33-15.85.18-.71.06-5.27-7.52-3.2a10,10,0,0,0-2.91,1.1l-1-1.91,1.07-.59c26.43-10.4,7.27,26,6.95,27.09.38,0,11.05-.86,12.24-1,1.78-.2,12.64-1.91,14.51-2.44A74.51,74.51,0,0,0,322.7,89c12.15-8,14.29-16.78,19.66-18.51,12.35-3.85,14.83,10.27,3.35,17.94a14.46,14.46,0,0,1-4.16,2.44c-1.31.5-9.78,4.69-20.08,5.08-2.89.33-27.71,2.86-29.52,3.09S288.41,99.42,286.64,99.66Zm-3.77,1.51C254.43,97.67,186.65,114,176,158.84,165,233.84,235.79,209.89,282.87,101.17Z"/><path d="M280.67,145.92c-.46,1.15-1.75,4.4-3.41,8.53l-2.53-1q.87-2.17,1.72-4.35c.38-1,.65-2,1-2.93.8-2,3.77-10.18,4.48-12.19.46-1.32,7.28-23.31,7.56-24,.19-.44.34-.9.49-1.36.19-.63.45-.8,1.1-.69,1.3.22,1.66,1,1.21,2.19-.68,1.83-1.32,3.68-1.86,5.55-.66,2.31-1.14,4.67-1.81,7s-1.53,4.8-2.32,7.2c-.33,1-.71,2-1,3.07a6.59,6.59,0,0,0-.14,1c.22,0,.38,0,.46,0,.75-.65,1.51-1.29,2.23-2a75.66,75.66,0,0,0,5.4-5.78c.16-.19,5.75-7,7-8.65.59-.74,1.22-1.45,1.79-2.22.75-1,1.45-2.06,2.17-3.09.26-.37.51-.75.8-1.1.66-.79,3.43-5.23,5.1-6l1.82,1.22a18.35,18.35,0,0,0-1.54,1.67c-1.54,2.15-3,4.35-4.54,6.51-.57.81-1.21,1.56-1.82,2.34l-2.68,3.42c-.63.8-1.26,1.59-1.88,2.39-.33.43-.6.89-.93,1.3-1.18,1.48-2.38,3-3.56,4.42l-.66.83c.44.14.76.28,1.1.35l-.49,2.3a4,4,0,0,0-1.6.43C286.55,134.73,281.48,143.9,280.67,145.92Z"/><path d="M271.93,72.16c-.86-3.89-7.9,5.21-8.7,6.15-1,1.19-6.25,8.93-11.66,8.65l.1-2.6c3.77,0,14.76-15.83,18.93-16.57,3.22-1.58,4.26,2.48,4.12,4,.77-.49,1.36-.9,2-1.26L279,69.24l1,1.91c-6.39,3.52-10,13-10.51,14-.08.14-.18.26-.26.41-.47.86-2.57.84-3.22.13C265.84,85.51,272.48,74.45,271.93,72.16Z"/><path d="M257.41,64.1a1.9,1.9,0,0,1-.84,1.79c-.59.36-1.15.84-1.84.68-1.33,0-1.75-.23-2.16-1.19a1.33,1.33,0,0,1,.31-1.6,3.55,3.55,0,0,1,3-1A1.93,1.93,0,0,1,257.41,64.1Z"/><path d="M233.05,217.64c-.4,0-3.57-.46,2.74-7.75.38-.43.81-.83,1.22-1.23.67-.66,18.16-15.76,19.52-16.9a3.86,3.86,0,0,1,.44-.24C256.15,193.05,240.46,217.84,233.05,217.64Z"/><path d="M235.79,209.89c-6.31,7.29-3.14,7.78-2.74,7.75,7.41.2,23.1-24.59,23.92-26.12a3.86,3.86,0,0,0-.44.24c-1.36,1.14-18.85,16.24-19.52,16.9C236.6,209.06,236.17,209.46,235.79,209.89Zm15.15-3.69c-1.4,1.72-10.8,15.31-18.95,14.32-1.79,0-3.12-.8-3.33-2.21a6.67,6.67,0,0,1,.2-2.81,11.73,11.73,0,0,1,2-4.07,25.57,25.57,0,0,1,2.18-2.82c1.68-1.63,3.29-3.33,5-4.89s14.52-12.42,16.54-14.19c1.27-1.12,2.55-2.21,3.82-3.32a3.27,3.27,0,0,0,.5-.55c.84-1.11,1.68-2.22,2.5-3.35,2.22-1.68,10.69-22.71,11.83-25.42.49-1.15,1-2.31,1.43-3.47l2.53,1C273,165,266.35,181.31,265,183.07a24.71,24.71,0,0,0-2.11,3.81c-.64,1.25-1.19,2.56-1.84,3.8-.87,1.66-1.76,3.3-2.72,4.9A89,89,0,0,1,250.94,206.2Z"/><path d="M215.15,82.31c.42-1.73,2.5-10.14,2.86-11.66,0-.2.08-.41.11-.6a2.19,2.19,0,0,0-1.92-1.15l.31-2.26c.43.06.85.13,1.27.21a3.19,3.19,0,0,1,2.62,2.05,7.35,7.35,0,0,0,.43.82c1.18-.88,4.59-3.68,7.54-3.44a11.31,11.31,0,0,1,4.34,1,3.49,3.49,0,0,1,2.14,2.84c.31,1.93-1.07,11.1-1.09,11.63-.22,2.43,2.06,2,2.56,1.64,2.71-1.44,12.09-9.45,13.57-12.94a1.52,1.52,0,0,1,2.06-.33c.94.65,1.09,1.25.53,2.07-1,1.43-2.06,2.82-2.91,4.34a7,7,0,0,0-1.22,4.59,4.09,4.09,0,0,0,2.9,3.17,1.16,1.16,0,0,0,.42.08l-.1,2.6a5.92,5.92,0,0,1-3.78-1.68,7,7,0,0,1-2.61-4.62C242,83,232.45,92.76,230.75,82.78a88.5,88.5,0,0,1,1.3-10.67c.54-2.14-.22-2.75-1.92-3.2-9.73,0-11.35,10.42-11.46,11-.43,2.15-.82,4.31-1.26,6.47-.11.52-.38,1-.53,1.52a1,1,0,0,1-1.19.69,1.88,1.88,0,0,1-1.64-2.3C214.4,85,214.83,83.64,215.15,82.31Z"/><path d="M153.38,151.34c-3.92,3-7.08,4.29-9.59,4.55l-.13-2.9a8.36,8.36,0,0,0,2.43-.5c21.17-9.75,34.45-64.42,33.78-67.76l-.28-.13c-.47.33-1,.64-1.4,1a64.41,64.41,0,0,0-8.32,7.58l-1.94-2.09c.87-.9,1.76-1.82,2.68-2.74,1.18-1,5.61-4.57,6.67-5.36a12.46,12.46,0,0,0,1.28-1.13c1.33-1.32,1.41-1.49,1.53-3.31a11.68,11.68,0,0,0,0-1.87c.18-4.89-8-4.1-14-.4l-1.4-1.85,1.38-.83a32.71,32.71,0,0,1,7.45-3,8.75,8.75,0,0,1,6.79.63c2.57,1.55,3.6,4.34,3.66,7.16a39.41,39.41,0,0,0,4.06-2.1c1.73-1.21,3.72-2,5.26-3.55a8.51,8.51,0,0,1,1.91-1.15c1.48-.81,3-1.55,4.46-2.39a3.86,3.86,0,0,1,5.13,1,2.39,2.39,0,0,1,.25.68l.44,1.22c1-.93,1.82-1.7,2.62-2.51.56-.56,4.92-3.25,6.48-3.1.65.06,1.3.13,1.94.21l-.31,2.26c-.12,0-.24,0-.37,0-1.29-.07-4.49,1.44-4.92,1.81a18.92,18.92,0,0,0-3.32,3c-1.58,2.21-3.52,4.18-4.28,7a41.93,41.93,0,0,0-1.5,5.09,2.56,2.56,0,0,1-.38.91c-.62,1.09-1.1,1.24-2.21.7a1.72,1.72,0,0,1-.72-2.16c.79-2,1.72-4,2.34-6a28.84,28.84,0,0,1,1.29-3.39,12.21,12.21,0,0,0,.67-2.91c.2-1.17-.46-1.77-1.48-1.39a27,27,0,0,0-5,2.45c-1.9,1.2-3.75,2.46-5.63,3.68a13.07,13.07,0,0,1-1.64.9,7,7,0,0,0-2.29,1.48,6.26,6.26,0,0,1-1.45,1,1.87,1.87,0,0,0-1,1.36C183.75,85.19,174.39,134.1,153.38,151.34Z"/><path d="M143.66,153l.13,2.9a9,9,0,0,1-7.92-3.28c-4.74-4-4.7-23.49,32.06-61.53l1.94,2.09c-15,15.43-40.07,47.93-30.5,58.25A5.73,5.73,0,0,0,143.66,153Z"/><path class="cls-6" d="M91.86,92.58c-.57,1.41-1.09,2.85-1.71,4.23-1.05,2.35-2.16,4.67-3.26,7-.58,1.23-1.17,2.46-1.77,3.68-1.53,3.13-3,6.28-4.63,9.35-1.23,2.34-2.63,4.59-4,6.88s-2.84,4.75-4.18,7.18c-1.17,2.13-2.45,4.2-3.41,6.45-4.61,9-16.4,31.14-32.1,48.41A39.3,39.3,0,0,1,27.69,193a16.32,16.32,0,0,1-8.34,2.27,11.64,11.64,0,0,1-4.38-.77,18.25,18.25,0,0,1-4-2,14.52,14.52,0,0,1-3.15-3.16,23.45,23.45,0,0,1-3.23-5.89,21.56,21.56,0,0,1-1.29-5.38c-2.09-10.41,4-21.58,4.37-22.52a91,91,0,0,1,6.63-11.11c.58-.78,5-6.69,6.86-8.72,2.11-2.34,4.35-4.57,6.62-6.76,1.37-1.31,12.18-9.94,13-10.61.2-.15.4-.3.61-.44,10.51-7.56,30-16.61,33.62-17.92,2.11-.94,4.25-1.83,6.37-2.77s4.14-1.83,6.19-2.8c1.13-.53,2.21-1.15,3.31-1.73l.65-.33Z"/><path d="M70,70.46c-.39-1,.18-2.28.88-3.34a19.23,19.23,0,0,1,4.47-4c.94-.67,6-4.17,7.43-3,.34.27.57.57.33.93.1,1.59-3.5,3.4-4.78,4.37a13,13,0,0,1-1.82,1C76,66.73,70.2,70.46,70,70.46Z"/><path d="M66.37,73.36c-.07-.23-.12-6.26,3.37-9.42A6.08,6.08,0,0,1,71,62.61a38.05,38.05,0,0,1,6.91-4.07c5.41-1.56,6.81-.85,7.68,1.22.61,1.31,0,2.37-.72,3.47C83.42,65.5,81.25,66.79,79,68a57.37,57.37,0,0,0-5.59,3.35,2.69,2.69,0,0,0-.68,4.22,1.44,1.44,0,0,0,1,.32A12.31,12.31,0,0,0,78.16,75c1.38-.47,2.73-1,4.08-1.52.38-.15,7-3.43,8-4,2-1.1,4.12-2.15,6.11-3.34l.17-.11,1.3,2.11c-2.23,1.32-4.32,2.54-5,2.88s-15.24,8.93-21.07,8a10.86,10.86,0,0,1-4.23-2.79A9.49,9.49,0,0,1,66.37,73.36Zm4.51-6.24c-.7,1.06-1.27,2.35-.88,3.34.2,0,6-3.73,6.51-4a13,13,0,0,0,1.82-1c1.28-1,4.88-2.78,4.78-4.37.24-.36,0-.66-.33-.93-1.47-1.16-6.49,2.34-7.43,3A19.23,19.23,0,0,0,70.88,67.12Z"/><path d="M126.87,86.43a28.14,28.14,0,0,0,4.07-3.56c1.59-1.68,3.05-3.49,4.48-5.31.81-1,1.44-2.21,2.18-3.31s.57-1.46-.55-2a6.25,6.25,0,0,0-3-.76c-8.91-.45-17.35,6-18.12,10.49C114.65,85.94,120,90.37,126.87,86.43Zm-3.53-42.54c2.47-2.5,8.84-9.79,4.33-9-2.1,1-5.28,5.16-5.94,6-1.09,1.43-4.68,6.42-5.25,7.34-1,1.52-1.86,3.08-2.78,4.62l.15.14a1.85,1.85,0,0,0,.52-.22c1.14-1,2.28-2,3.4-3.08S123.16,44.06,123.34,43.89ZM4.64,183.48a23.45,23.45,0,0,0,3.23,5.89A14.52,14.52,0,0,0,11,192.53a18.25,18.25,0,0,0,4,2,11.64,11.64,0,0,0,4.38.77A16.32,16.32,0,0,0,27.69,193a39.3,39.3,0,0,0,9.15-7.26c15.7-17.27,27.49-39.45,32.1-48.41,1-2.25,2.24-4.32,3.41-6.45,1.34-2.43,2.79-4.79,4.18-7.18s2.73-4.54,4-6.88c1.61-3.07,3.1-6.22,4.63-9.35.6-1.22,1.19-2.45,1.77-3.68,1.1-2.32,2.21-4.64,3.26-7,.62-1.38,1.14-2.82,1.71-4.23l-.27-.19-.65.33c-1.1.58-2.18,1.2-3.31,1.73-2,1-4.12,1.89-6.19,2.8s-4.26,1.83-6.37,2.77c-3.66,1.31-23.11,10.36-33.62,17.92-.21.14-.41.29-.61.44-.83.67-11.64,9.3-13,10.61-2.27,2.19-4.51,4.42-6.62,6.76-1.83,2-6.28,7.94-6.86,8.72a91,91,0,0,0-6.63,11.11c-.41.94-6.46,12.11-4.37,22.52A21.56,21.56,0,0,0,4.64,183.48Zm31,7.15c-5.43,5.05-12.68,10-23.88,5.56-4.7-1.6-8-7.27-8.64-8.79a30.44,30.44,0,0,1-3-12c0-.29-1-9.06,4.35-19.5,1-2.71,5-8.74,5.57-9.71.35-.56,11.71-17.64,21.38-23.62,1.58-1.25,3.2-2.45,4.79-3.68,1-.79,2-1.63,3-2.39,1.57-1.14,3.15-2.28,4.79-3.32q3.76-2.39,7.64-4.61c.79-.45,6.12-3.36,7.76-4.32C61.54,103,84.48,92.8,86.91,91.64a42.46,42.46,0,0,1,6.19-2.79,2.08,2.08,0,0,0,1.28-1.28c.88-2,1.74-4,2.64-6,1.19-2.65,2.41-5.29,3.64-7.92.75-1.62,1.58-3.2,2.28-4.84.61-1.42,1.09-2.9,1.62-4.36l-.21-.16c-.58.38-3.68,2.24-6.54,3.94l-1.3-2.11c2.39-1.44,4.73-3,7.06-4.55,1.1-.73,2.14-1.57,3.21-2.36a7.4,7.4,0,0,0,1.74-2.66c.68-1.22,1.31-2.47,2-3.71.29-.54,3.34-5.74,4.71-7.71.16-.24,3-4.31,4.35-6,1-1.23,5-5.46,7.49-6.63a3.41,3.41,0,0,1,4.4.43,2.33,2.33,0,0,1,.6,2.63,12.56,12.56,0,0,1-2,4.19c-5.27,7.95-18.78,19.37-19.4,19.88a3.34,3.34,0,0,0-.8.92,104.78,104.78,0,0,0-5.37,11.77c-.66,1.65-1.49,3.24-2.23,4.86-1.09,2.38-2.17,4.77-3.25,7.15a10.94,10.94,0,0,0-.76,2.11c1.76-.92,7.71-3.49,8.85-4.17.81-.49,1.58-1.06,2.38-1.56,1-.62,2-1.19,3-1.82a9.54,9.54,0,0,0,3-2.57,10.86,10.86,0,0,1,2.16-2.06c4.47-4.52,13.92-6,17.18-5.55a22.36,22.36,0,0,1,3.35,1,.47.47,0,0,1,.22.12c.55,1,1.55,1.06,2.52,1.28,1.26.3,1.57,1.07,1,2.23a18.17,18.17,0,0,1-1.43,2.18,18.81,18.81,0,0,0-2.89,6.16c-1.54,4.64,1.29,7.23,2.69,6.51a16,16,0,0,0,2.59-1.46,34.49,34.49,0,0,0,2.72-2.56,6.51,6.51,0,0,1,.51-.54c1.39-1,2.26-2.51,3.43-3.73.35-.36.67-.73,1-1.09.76-.83,5.29-4.77,6.82-5.89,7.48-3.9,7.18,1.39,7.32,1.62l1.4,1.85a18,18,0,0,0-2,1.42c-.08.09-5,11-5.41,11.72a6.3,6.3,0,0,1-1.2,1.56,1,1,0,0,1-1.56-.12c-1.53-.82,4.94-12.77,5.65-15.33a6.11,6.11,0,0,0,.08-1c-1-.69-2-.22-2.85.15a6.41,6.41,0,0,0-1.71,1.23c-1.19,1.09-2.39,2.17-3.48,3.36-1.81,2-3.53,4.06-5.31,6.08-.41.46-.92.83-1.37,1.26a24.59,24.59,0,0,1-2.81,2.6,8.09,8.09,0,0,1-5.47,1.61,3.61,3.61,0,0,1-2.3-1.13,5.86,5.86,0,0,1-2-5.13,4.11,4.11,0,0,0-.06-.82l-1,.93a41.16,41.16,0,0,1-3.9,3.47A14,14,0,0,1,122.67,91c-5,.83-10.32-3.43-10-8.67-.13,0-.34,0-.42.06-1,1-9.18,5.1-12.11,6.28-.93.37-1.82.83-2.72,1.26a4.26,4.26,0,0,0-2,2.29q-1.81,4-3.69,8c-.87,1.87-1.79,3.73-2.67,5.6s-1.7,3.87-2.66,5.75c-1.36,2.7-2.82,5.35-4.24,8-.56,1.07-1.11,2.14-1.69,3.2-.4.72-.85,1.41-1.27,2.12-1.08,1.82-2.2,3.61-3.22,5.47q-3.35,6.1-6.59,12.28c-.94,1.79-1.69,3.69-2.67,5.46-1.61,2.9-3.34,5.73-5,8.57-1.27,2.15-2.56,4.28-3.86,6.41-.74,1.2-1.52,2.37-2.28,3.54-1.11,1.7-2.18,3.43-3.35,5.08-1.36,1.93-2.79,3.82-4.24,5.68C46.81,178.87,38,188.66,35.61,190.63Z"/></g></g><path d="M265.48,101"/></svg>